<?xml version="1.0" standalone="no"?>
<!DOCTYPE svg PUBLIC "-//W3C//DTD SVG 20010904//EN"
 "http://www.w3.org/TR/2001/REC-SVG-20010904/DTD/svg10.dtd">
<svg version="1.0" xmlns="http://www.w3.org/2000/svg"
 width="640.000000pt" height="360.000000pt" viewBox="0 0 640.000000 360.000000"
 preserveAspectRatio="xMidYMid meet">

<g transform="translate(0.000000,360.000000) scale(0.100000,-0.100000)"
fill="#000000" stroke="none">
<path d="M6133 3549 c37 -28 69 -59 72 -70 4 -10 10 -19 15 -19 8 0 103 -96
154 -155 l25 -30 1 163 0 162 -166 0 -167 0 66 -51z"/>
<path d="M175 3062 c-16 -9 -52 -30 -80 -47 -27 -16 -58 -35 -70 -40 -20 -11
-20 -12 -23 -1493 l-2 -1482 2027 0 c1282 0 2034 4 2043 10 12 7 12 10 1 10
-8 0 -11 6 -7 18 6 16 5 16 -8 0 -12 -17 -14 -17 -31 1 -9 11 -14 25 -10 30 9
15 -8 14 -23 -1 -9 -9 -12 -9 -12 0 0 7 -7 12 -15 12 -8 0 -15 7 -15 15 0 9
-9 15 -22 15 -12 0 -33 10 -46 23 -14 12 -22 15 -18 7 4 -8 -5 -1 -21 15 -15
17 -39 36 -53 43 -14 6 -32 16 -40 20 -8 5 -24 13 -35 19 -39 19 -70 38 -75
45 -3 4 -23 3 -43 -3 -29 -8 -63 -6 -139 6 -56 9 -104 18 -108 20 -3 2 -33 6
-65 10 -33 3 -82 12 -110 20 -27 7 -74 16 -102 20 -52 7 -71 19 -35 22 9 1 40
7 67 13 133 28 189 33 245 22 54 -12 147 -15 105 -5 -11 3 -38 18 -60 33 -22
15 -56 37 -75 49 l-35 22 115 -7 c119 -6 135 -11 246 -75 69 -40 148 -77 179
-84 39 -10 22 7 -25 25 -19 7 -42 19 -50 25 -23 18 -271 141 -353 174 -60 25
-92 31 -187 36 -106 6 -121 9 -187 43 -40 20 -73 39 -73 42 0 3 55 5 122 4 68
0 150 2 183 5 50 5 56 7 33 14 -16 4 -28 13 -28 20 0 7 -15 17 -32 22 -26 8
-34 16 -36 38 -3 22 1 27 18 27 98 0 573 26 645 35 106 14 244 -2 230 -26 -4
-5 36 -9 97 -10 120 -1 169 -13 99 -24 l-43 -8 26 -16 c26 -15 34 -31 17 -31
-5 0 -12 -7 -15 -16 -3 -8 -2 -12 4 -9 6 3 10 1 10 -5 0 -6 5 -8 12 -4 7 5 31
7 53 6 30 -2 36 0 25 7 -8 6 -10 11 -5 11 13 0 35 -21 35 -32 0 -5 -6 -8 -12
-7 -26 3 -38 -1 -38 -15 0 -9 7 -12 21 -9 12 4 25 0 30 -8 8 -11 10 -10 8 6
-2 33 1 45 12 45 5 0 7 -4 4 -10 -3 -6 4 -10 17 -10 21 -1 21 -2 5 -11 -21
-12 -13 -30 11 -23 9 3 6 -2 -8 -11 -15 -10 -18 -14 -7 -11 10 3 23 6 28 6 5
0 9 7 9 16 0 12 6 15 22 11 12 -4 29 -1 37 6 12 10 14 8 9 -11 -5 -19 -4 -21
7 -12 10 8 14 7 18 -7 4 -14 5 -13 6 5 0 13 5 20 11 17 6 -4 10 -12 9 -18 -1
-7 -1 -21 0 -31 1 -18 2 -18 14 -3 17 22 94 12 102 -14 5 -14 15 -17 56 -15
46 3 50 1 46 -16 -4 -14 -1 -18 9 -14 8 3 14 1 14 -4 0 -6 -9 -10 -21 -10 -15
0 -19 -5 -15 -16 3 -8 2 -12 -4 -9 -6 3 -10 13 -10 21 0 8 -7 14 -15 14 -8 0
-14 -6 -12 -12 2 -14 -6 -14 -37 -2 -14 5 -17 4 -11 -5 6 -10 3 -11 -11 -3
-23 11 -42 6 -71 -21 -13 -11 -23 -15 -23 -9 0 7 5 12 11 12 5 0 7 5 4 10 -3
5 -17 10 -31 10 -13 0 -24 3 -24 8 0 4 -22 5 -50 4 -68 -5 -64 -22 5 -20 32 1
60 -3 67 -10 9 -9 9 -12 0 -12 -8 0 -11 -10 -8 -26 3 -17 1 -24 -7 -21 -7 2
-11 15 -9 29 3 22 -1 26 -23 26 -19 0 -23 -4 -15 -13 5 -6 7 -15 3 -19 -4 -4
-1 -12 7 -17 11 -8 10 -9 -8 -4 -14 4 -22 2 -22 -6 0 -9 -3 -9 -14 0 -15 13
-32 -1 -22 -18 3 -4 -10 -6 -29 -4 -20 2 -35 -1 -35 -7 0 -5 6 -10 14 -10 8 0
18 -5 22 -12 4 -7 3 -8 -4 -4 -7 4 -12 2 -12 -3 0 -13 16 -14 38 -2 11 6 21 4
30 -5 11 -12 8 -14 -18 -14 -26 0 -29 -2 -18 -14 7 -7 19 -11 25 -9 7 3 13 0
13 -6 0 -6 -18 -11 -42 -11 -33 0 -39 -3 -30 -12 15 -15 16 -32 2 -23 -16 10
-12 -15 5 -31 13 -14 15 -14 15 0 0 13 4 14 25 4 l25 -11 -26 -28 c-14 -15
-23 -32 -20 -38 4 -5 -6 -4 -21 4 -31 16 -42 12 -24 -8 9 -11 8 -17 -2 -26
-21 -17 -26 -4 -22 52 1 29 1 42 -2 30 -2 -13 -9 -23 -14 -23 -5 0 -9 -11 -9
-25 0 -14 -4 -25 -10 -25 -5 0 -10 -8 -10 -17 0 -11 3 -14 8 -8 13 18 37 11
40 -12 2 -13 1 -23 -3 -23 -16 0 -55 34 -55 48 0 11 -3 13 -10 6 -13 -13 -2
-44 15 -44 8 0 17 -4 20 -10 12 -19 -83 27 -119 59 -11 9 -16 10 -12 4 11 -19
2 -16 -46 15 -24 15 -59 35 -78 44 -19 9 -78 37 -130 62 -52 25 -98 46 -102
46 -5 0 -8 -7 -8 -16 0 -8 4 -13 9 -10 5 4 11 2 13 -4 2 -6 14 -12 27 -15 13
-2 41 -16 62 -30 21 -14 41 -25 44 -25 4 0 13 -6 21 -14 7 -8 19 -16 26 -19
10 -4 11 -7 1 -18 -22 -22 -14 -33 9 -13 12 10 18 13 14 7 -5 -9 0 -13 14 -13
28 0 71 -30 63 -44 -4 -7 -2 -7 7 1 16 15 53 -2 88 -39 22 -24 22 -58 0 -58
-7 0 -7 4 0 13 7 8 7 18 2 27 -8 13 -10 12 -10 -2 0 -10 -4 -18 -10 -18 -20 0
-9 -25 15 -36 21 -10 24 -9 27 8 3 20 3 20 27 -1 13 -12 25 -21 26 -21 1 0 0
12 -2 28 -4 21 -2 24 6 12 6 -8 11 -11 11 -6 0 5 8 -1 19 -12 17 -21 26 -22
144 -20 70 1 121 6 114 10 -9 6 -9 8 0 8 6 0 15 -4 18 -10 4 -6 326 -10 880
-10 l875 0 -1 187 c0 104 -3 182 -6 176 -2 -7 -9 -13 -15 -13 -6 0 -3 9 6 19
16 18 16 20 1 29 -16 8 -16 10 -1 15 9 4 16 14 16 24 0 15 -2 15 -16 -3 -15
-18 -15 -18 -9 8 5 27 -8 39 -18 18 -3 -6 -4 -5 -3 2 2 7 13 13 25 12 19 0 21
5 21 45 0 33 -3 42 -10 31 -9 -13 -10 -13 -10 0 -1 11 -6 8 -20 -9 l-20 -23 0
36 c0 40 -16 49 -23 13 -3 -16 -5 -13 -6 11 0 17 -5 32 -11 32 -5 0 -10 9 -10
21 0 11 -5 19 -11 17 -6 -2 -10 -8 -9 -13 0 -6 -14 -12 -32 -15 -24 -4 -33
-10 -32 -23 1 -10 -5 -17 -16 -17 -16 0 -17 4 -7 30 6 17 17 28 23 26 7 -3 10
6 8 22 l-4 27 12 -28 c12 -27 28 -37 28 -16 0 6 -5 20 -11 31 -7 12 -7 18 -1
14 6 -3 13 0 15 6 4 10 6 10 6 1 1 -7 7 -13 14 -13 14 0 41 -39 33 -48 -4 -3
8 -12 25 -19 22 -9 29 -18 25 -29 -4 -10 -1 -14 6 -11 8 2 12 16 10 34 -2 18
3 37 12 46 14 13 16 55 16 291 0 164 -4 277 -10 281 -5 3 -6 13 -3 23 4 12 0
11 -14 -5 -11 -13 -25 -23 -31 -23 -17 0 -24 -37 -12 -59 8 -17 6 -22 -11 -32
-13 -6 -19 -7 -15 -1 3 6 -12 21 -34 33 -22 13 -40 26 -40 31 0 4 -7 8 -15 8
-8 0 -15 5 -15 10 0 6 -7 10 -15 10 -17 0 -10 -29 13 -47 18 -15 15 -19 -19
-28 -21 -5 -27 -2 -38 21 -10 22 -14 25 -21 13 -14 -22 -43 13 -42 51 1 30 0
31 -36 25 -28 -5 -33 -4 -22 4 12 9 10 11 -10 11 -14 0 -36 3 -50 6 -20 4 -22
3 -10 -5 13 -9 13 -11 -2 -11 -10 0 -18 -4 -18 -10 0 -5 -8 -10 -19 -10 -24 0
-33 -43 -15 -67 7 -10 14 -28 14 -41 0 -13 7 -37 16 -53 8 -17 13 -33 10 -37
-3 -3 -6 1 -6 9 0 8 -6 4 -16 -9 -23 -33 -34 -18 -27 38 4 34 2 50 -6 50 -6 0
-11 -18 -11 -42 -1 -35 -3 -40 -11 -25 -6 10 -8 29 -5 42 5 20 3 23 -10 18
-12 -4 -14 -14 -10 -37 5 -21 3 -27 -4 -20 -6 6 -13 24 -15 40 -2 16 -4 31 -4
33 -1 3 -7 -4 -15 -15 -13 -17 -12 -23 7 -53 11 -19 15 -31 9 -27 -7 4 -12 2
-12 -3 0 -6 -4 -11 -10 -11 -5 0 -10 12 -10 26 0 14 -4 23 -10 19 -5 -3 -10 1
-10 9 0 24 -17 19 -23 -6 -4 -13 -1 -26 6 -30 7 -5 -1 -6 -17 -2 -23 6 -27 4
-21 -7 7 -12 6 -12 -6 0 -11 10 -11 15 -1 18 17 7 5 23 -19 23 -10 0 -19 3
-19 8 0 14 -61 12 -67 -3 -8 -21 -16 -18 -30 10 -8 18 -8 25 0 25 8 0 7 4 -1
12 -17 17 -40 18 -46 2 -3 -8 1 -14 9 -14 8 0 15 -4 15 -9 0 -5 -20 -3 -44 4
-40 12 -45 12 -51 -3 -4 -12 -8 -13 -13 -5 -6 10 -17 10 -47 1 -22 -7 -43 -16
-46 -21 -4 -5 -12 -6 -19 -2 -7 4 -13 -1 -17 -13 -5 -22 -29 -36 -44 -26 -5 3
-9 1 -9 -4 0 -5 -11 -7 -25 -4 -31 5 -35 -22 -5 -38 19 -10 19 -11 -1 -31 -16
-16 -23 -18 -35 -8 -11 9 -14 8 -14 -10 0 -11 3 -20 8 -20 32 5 82 -3 82 -13
0 -11 58 -55 108 -82 12 -7 106 -23 187 -32 22 -2 55 -9 74 -15 26 -9 35 -9
43 2 7 10 9 8 5 -7 -7 -33 5 -45 27 -28 17 12 17 14 3 14 -10 0 -14 5 -11 14
4 11 12 10 44 -5 22 -11 46 -19 55 -19 10 0 13 -5 9 -12 -6 -11 -4 -11 7 0 19
18 42 15 35 -4 -4 -9 -1 -23 5 -30 9 -11 8 -14 -2 -14 -11 -1 -10 -4 2 -13 10
-7 19 -36 23 -71 12 -96 40 -145 38 -66 -1 27 1 29 19 19 11 -6 23 -17 26 -25
3 -8 12 -14 21 -14 12 0 11 4 -7 16 -16 12 -20 19 -12 27 8 8 14 8 23 -1 14
-14 28 -16 28 -4 0 5 -12 15 -26 22 -21 12 -25 20 -22 47 3 24 0 33 -10 33
-22 0 35 50 61 54 18 3 21 9 19 34 -2 16 2 33 7 37 7 3 11 -3 12 -17 3 -66 0
-63 62 -63 31 0 57 -3 57 -7 0 -5 6 -8 14 -8 9 0 12 -7 9 -21 -4 -16 -11 -19
-29 -15 -18 5 -24 2 -24 -9 0 -14 -3 -14 -30 0 -27 14 -30 14 -30 0 0 -8 7
-15 15 -15 9 0 15 -9 15 -25 0 -27 -17 -34 -26 -10 -8 21 -22 19 -20 -3 0 -9
9 -20 19 -24 9 -4 17 -13 17 -20 0 -9 -3 -9 -10 2 -8 13 -10 12 -10 -4 0 -12
-5 -16 -15 -12 -11 4 -15 -2 -15 -25 0 -34 -18 -35 -35 -2 -10 19 -10 19 -30
0 -11 -11 -14 -17 -7 -13 7 4 12 1 12 -8 0 -10 6 -13 16 -9 13 5 14 0 8 -33
-3 -22 -11 -47 -16 -57 -5 -10 -8 -20 -6 -21 2 -1 12 -8 22 -16 18 -14 19 -14
7 7 -14 27 -9 29 24 7 27 -18 34 -40 10 -30 -22 8 -18 0 8 -16 21 -15 22 -14
23 18 1 19 -4 35 -12 38 -8 3 -14 19 -14 35 0 20 -6 31 -17 34 -15 4 -15 5 -2
6 11 1 17 10 17 26 0 37 7 40 38 16 15 -12 29 -19 32 -16 3 3 4 27 3 55 -1 39
2 48 13 44 21 -8 28 -32 15 -56 -8 -14 -8 -23 0 -31 17 -17 13 -30 -6 -23 -16
6 -16 6 0 -12 17 -18 22 -50 19 -111 l-2 -33 -26 17 c-14 9 -29 14 -32 10 -4
-3 0 -10 8 -15 8 -6 10 -10 4 -10 -17 0 -25 -29 -14 -49 5 -10 6 -28 3 -40 -5
-20 -7 -21 -24 -5 -16 15 -19 14 -30 -4 -10 -16 -16 -18 -31 -9 -21 13 -24 28
-5 24 15 -3 16 45 1 50 -7 2 -11 -2 -10 -9 0 -7 -3 -15 -9 -18 -5 -3 -10 7
-10 22 -1 16 -12 37 -28 52 -29 27 -32 37 -19 64 10 20 -23 59 -34 41 -3 -6
-11 -3 -20 8 -7 10 -14 13 -14 6 0 -6 12 -21 27 -33 20 -15 24 -23 15 -29 -7
-4 -14 -17 -15 -28 -1 -18 -4 -19 -23 -11 -21 10 -22 16 -18 89 2 43 0 80 -5
83 -5 3 -9 -27 -9 -68 0 -41 -3 -79 -7 -85 -3 -6 -1 -11 5 -11 8 0 8 -6 0 -20
-6 -11 -7 -20 -3 -20 4 0 2 -4 -6 -9 -19 -12 -71 16 -71 40 0 25 8 24 37 -3
l23 -21 0 20 c0 12 3 29 7 38 5 15 1 17 -30 13 -19 -2 -35 -1 -35 2 2 18 -4
21 -17 10 -13 -11 -21 -8 -45 15 -22 21 -30 25 -30 13 0 -9 7 -18 15 -22 9 -3
15 -18 15 -35 0 -28 -1 -29 -26 -18 -14 7 -27 23 -30 38 -3 14 -19 33 -35 43
-28 17 -29 16 -29 -3 0 -30 -15 -33 -54 -10 -34 20 -41 47 -9 35 8 -3 11 -1 8
4 -8 13 -35 13 -35 0 0 -5 -5 -10 -11 -10 -16 0 -79 30 -114 54 -42 29 -67 42
-101 50 -16 4 -43 23 -60 42 -30 32 -31 37 -31 122 0 108 -10 182 -26 183 -7
1 -33 2 -59 3 l-48 2 -1 -80 c-1 -45 0 -98 1 -118 1 -36 0 -38 -27 -37 -17 1
-21 3 -10 6 21 5 21 8 1 38 -10 15 -18 56 -21 107 -3 46 -9 88 -14 93 -4 6
-11 30 -15 53 l-7 42 -44 0 c-36 0 -44 3 -39 15 3 8 1 15 -4 15 -6 0 -10 16
-10 36 0 30 -3 34 -14 25 -17 -15 -44 -5 -51 20 -4 10 -13 19 -21 19 -8 0 -14
5 -14 10 0 17 -17 11 -50 -16 -17 -15 -33 -24 -36 -21 -3 3 -21 -1 -39 -9 -41
-17 -45 -17 -45 -4 0 6 9 10 19 10 23 0 37 17 19 23 -7 2 -1 2 14 0 l27 -4 3
98 c2 54 2 100 1 102 -4 8 -115 -36 -188 -75 -90 -49 -72 -47 -350 -24 -60 5
-168 12 -240 16 -71 3 -159 9 -195 13 l-65 7 60 20 c46 16 61 26 63 42 4 26
32 30 33 5 0 -15 2 -15 8 2 4 11 6 28 3 37 -3 14 -8 15 -23 7 -15 -7 -19 -6
-19 6 0 22 -28 18 -35 -5 -4 -11 -28 -32 -55 -45 -57 -29 -75 -31 -66 -10 4
12 -4 15 -39 15 -33 0 -45 -4 -45 -15 0 -18 4 -18 -265 -4 -162 8 -213 13
-221 25 -6 7 -25 14 -43 14 -40 0 -42 -27 -3 -55 18 -13 23 -14 14 -3 -11 14
-9 15 17 14 16 -1 32 -4 35 -7 3 -3 44 -4 91 -3 47 1 83 -1 81 -5 -3 -3 69 -6
159 -6 90 0 161 -4 158 -8 -3 -5 -37 -24 -76 -44 l-72 -35 -115 6 c-99 4 -362
38 -397 51 -7 2 -11 45 -12 131 -1 70 -4 131 -7 136 -7 11 -86 0 -95 -13 -4
-8 -122 -28 -166 -29 -7 0 -10 -6 -7 -13 6 -17 -57 -22 -67 -5 -4 7 -49 5
-140 -5 -74 -9 -136 -14 -138 -12 -2 2 -3 50 -2 106 2 101 2 103 -26 126 l-28
24 25 -6 c23 -6 23 -5 7 8 -13 11 -15 22 -11 46 6 31 34 44 34 16 0 -8 4 -15
9 -15 8 0 7 67 -1 75 -2 2 -22 1 -45 -2 -30 -4 -43 -11 -48 -27 -7 -19 -7 -20
-12 -2 -3 10 -1 21 4 25 11 8 4 261 -8 261 -5 0 -9 11 -9 24 0 14 -5 28 -11
32 -8 4 -10 -34 -8 -130 3 -122 1 -137 -15 -149 -14 -10 -29 -11 -62 -4 -24 6
-44 14 -44 18 0 4 -18 8 -39 7 -45 0 -64 8 -55 24 5 7 0 9 -13 6 -17 -5 -20 0
-22 45 l-2 50 65 -6 66 -6 0 30 c0 25 -5 30 -30 36 -24 4 -30 11 -31 32 0 24
-1 24 -14 -9 l-13 -35 -1 31 c-1 34 31 64 67 64 15 0 19 8 20 38 1 27 -1 33
-8 22 -7 -12 -10 -12 -10 -1 0 7 -6 11 -14 8 -8 -3 -17 -1 -20 6 -2 7 -5 -4
-5 -23 -2 -49 -13 -64 -45 -56 -23 6 -26 12 -26 46 0 36 3 40 24 40 23 0 24 2
15 30 -12 34 -25 39 -32 13 -3 -10 -5 -4 -6 14 -1 22 4 33 17 36 15 4 15 5 0
6 -13 1 -18 13 -20 54 l-3 52 -482 80 c-265 44 -484 82 -486 85 -7 6 149 3
228 -5 33 -3 146 -20 250 -36 242 -39 516 -79 535 -78 8 0 2 6 -15 14 l-30 13
38 1 c22 1 37 6 37 14 0 8 4 7 10 -3 8 -13 10 -13 10 1 0 16 -25 30 -85 45
l-30 8 32 4 c18 2 41 -2 52 -7 13 -8 22 -8 26 -1 4 6 12 7 18 4 7 -4 8 -3 4 2
-5 5 -13 10 -18 10 -5 1 -14 2 -20 3 -6 0 -9 13 -7 28 3 22 -2 28 -32 39 -19
6 -45 10 -57 7 -12 -3 -104 13 -205 36 -100 22 -237 52 -303 66 -152 33 -784
174 -807 181 -10 3 -18 9 -18 14 0 4 18 2 39 -6 22 -7 102 -25 178 -39 76 -15
167 -33 203 -40 36 -8 99 -20 140 -29 41 -8 123 -26 182 -40 59 -14 116 -26
125 -25 27 1 -51 20 -696 168 -96 22 -177 45 -180 50 -4 6 -47 19 -96 30 -50
11 -106 25 -125 31 -46 13 -69 12 -105 -8z m514 -418 c9 -8 -45 -2 -64 6 -14
7 -8 8 20 3 22 -3 42 -7 44 -9z m54 -11 c-7 -2 -19 -2 -25 0 -7 3 -2 5 12 5
14 0 19 -2 13 -5z m80 -10 c-7 -2 -21 -2 -30 0 -10 3 -4 5 12 5 17 0 24 -2 18
-5z m50 -10 c-7 -2 -19 -2 -25 0 -7 3 -2 5 12 5 14 0 19 -2 13 -5z m967 -87
c0 -11 -19 -15 -25 -6 -3 5 1 10 9 10 9 0 16 -2 16 -4z m-879 -73 c0 -32 4
-76 8 -98 7 -33 9 -24 10 53 1 84 3 92 20 92 15 0 21 -10 26 -40 9 -54 25 -61
25 -11 0 45 9 49 79 35 l31 -6 2 -72 2 -71 5 70 c6 68 8 71 41 67 6 -1 10 -55
11 -134 0 -73 4 -172 7 -219 9 -107 6 -121 -21 -118 -12 1 -29 -1 -39 -5 -9
-4 -32 -3 -51 2 -19 5 -46 8 -61 7 -14 -2 -24 1 -20 6 3 5 26 10 52 10 33 1
23 4 -34 9 -49 4 -91 14 -105 24 -13 9 -31 16 -40 16 -9 0 -22 6 -28 14 -6 7
-27 16 -47 19 -59 10 -64 19 -64 122 0 119 11 275 20 275 3 0 11 -12 17 -27
10 -26 11 -26 12 -5 2 49 20 18 25 -45 4 -38 10 -99 15 -138 l8 -70 2 105 c1
58 5 123 9 145 l8 40 12 -34 c7 -19 12 -47 12 -62 0 -32 19 -50 21 -20 1 12 3
26 4 31 1 6 3 28 4 50 2 62 21 47 22 -17z m-217 -300 c-11 -22 -21 183 -14
282 4 57 6 39 14 -97 4 -92 5 -175 0 -185z m736 271 c68 -8 128 -18 131 -20 4
-2 8 -79 8 -172 1 -92 4 -193 7 -224 5 -40 3 -58 -5 -58 -6 0 -11 -6 -11 -14
0 -19 -54 -30 -79 -16 -12 6 -21 8 -21 4 0 -4 -9 1 -19 10 -11 10 -17 24 -14
32 4 11 -4 13 -40 8 -28 -4 -47 -2 -51 5 -4 6 -29 13 -57 17 -34 5 -53 13 -60
25 -8 16 -6 19 11 19 19 0 20 5 20 203 l0 204 28 -3 c15 -2 83 -11 152 -20z
m344 -91 c4 -54 3 -118 -2 -143 l-10 -45 -2 55 -3 55 -7 -50 c-5 -37 -7 -19
-8 72 -1 73 2 124 8 128 6 4 8 11 5 16 -4 5 -2 9 3 9 6 0 13 -44 16 -97z
m-125 61 c2 -2 4 -113 5 -246 1 -224 0 -243 -16 -246 -10 -2 -18 2 -18 9 0 7
-8 21 -17 32 -13 15 -15 21 -5 24 9 4 12 53 12 204 0 170 -2 199 -15 199 -9 0
-15 9 -15 21 0 18 4 20 33 14 17 -4 34 -9 36 -11z m-956 -384 c3 -11 1 -18 -4
-14 -5 3 -9 12 -9 20 0 20 7 17 13 -6z m1096 -3 c6 -8 8 -17 4 -21 -4 -4 -8
-22 -8 -39 0 -25 -4 -32 -20 -32 -17 0 -20 8 -23 53 -3 46 -1 52 16 52 11 0
25 -6 31 -13z m-1049 -15 c0 -5 10 -14 23 -20 20 -10 19 -11 -15 -11 -36 -1
-50 14 -31 32 9 10 23 9 23 -1z m990 -17 c0 -14 -4 -25 -10 -25 -11 0 -14 33
-3 43 11 11 13 8 13 -18z m-1037 -20 c-7 -21 -13 -19 -13 6 0 11 4 18 10 14 5
-3 7 -12 3 -20z m265 -66 c6 18 18 12 19 -10 1 -13 -5 -23 -17 -26 -18 -5 -18
-7 -3 -29 20 -32 31 -30 25 2 -3 18 -1 25 6 20 6 -3 12 -2 14 3 1 4 14 12 27
16 15 5 21 4 17 -3 -3 -6 -1 -23 5 -39 11 -27 11 -27 20 -6 11 30 45 62 57 54
5 -3 9 -18 7 -33 -2 -21 2 -28 23 -33 16 -4 28 -1 33 7 6 9 9 10 9 1 0 -7 7
-10 16 -6 13 5 13 7 2 14 -9 6 -7 9 10 9 13 0 22 6 22 15 0 8 7 15 15 15 8 0
15 -4 15 -10 0 -5 9 -10 19 -10 11 0 22 -6 24 -12 3 -7 6 -3 6 10 1 12 6 22
12 22 6 0 9 7 5 15 -3 8 -1 15 3 15 15 0 19 -23 8 -53 -5 -15 -7 -30 -4 -33
11 -11 129 9 145 25 15 15 15 15 9 -1 -8 -21 6 -23 53 -7 19 7 35 8 39 3 3 -5
109 -10 235 -12 141 -1 234 -6 240 -12 7 -7 3 -10 -11 -10 -26 0 -30 -23 -33
-190 -1 -69 -3 -126 -5 -128 -1 -2 -27 -6 -58 -9 -53 -5 -54 -5 -65 24 -10 30
-10 30 -113 37 -141 9 -279 25 -306 36 -13 5 -23 16 -23 23 0 10 -8 13 -26 9
-19 -3 -25 -1 -20 7 4 6 15 11 24 11 14 0 14 2 3 9 -11 7 -8 13 13 26 49 33
30 42 -41 19 -17 -5 -17 -5 -1 8 10 9 14 19 8 28 -4 7 -6 20 -2 28 4 12 0 14
-18 9 -13 -3 -30 -1 -37 5 -9 7 -17 7 -28 -2 -18 -15 -20 1 -3 18 9 9 8 12 -5
12 -10 0 -20 -7 -23 -15 -4 -8 -10 -15 -15 -15 -4 0 -6 7 -3 15 8 21 -16 19
-31 -2 -12 -16 -14 -16 -29 0 -22 21 -36 22 -36 1 0 -15 -2 -15 -25 0 -29 19
-76 23 -57 4 21 -21 13 -26 -25 -17 -58 13 -59 11 -25 -24 42 -43 41 -51 -3
-26 -19 12 -35 16 -35 11 0 -6 -9 -8 -20 -5 -28 7 -25 -11 5 -27 29 -15 33
-30 7 -23 -10 2 -31 -1 -47 -7 -23 -9 -26 -13 -15 -20 8 -6 25 -10 38 -10 13
0 30 -7 38 -15 14 -13 12 -15 -13 -15 -39 0 -95 -17 -104 -32 -8 -13 -43 -19
-89 -16 -14 1 -48 2 -77 2 -63 0 -63 0 -63 144 0 97 -1 103 -22 112 -16 6 26
9 125 9 91 1 147 5 147 11 0 6 -4 10 -9 10 -35 0 -57 79 -23 81 15 1 14 2 -2
6 -15 4 -16 7 -5 13 8 6 22 0 38 -17 14 -13 27 -20 29 -14z m162 26 c11 -13 8
-15 -16 -16 -16 -1 -39 -3 -51 -4 -12 -1 -27 2 -35 6 -9 6 -6 9 12 10 45 3 48
4 56 12 11 11 20 9 34 -8z m-590 -101 c0 -8 -7 -14 -15 -14 -15 0 -21 21 -9
33 10 9 24 -2 24 -19z m1607 -66 c-3 -8 -6 -5 -6 6 -1 11 2 17 5 13 3 -3 4
-12 1 -19z m37 -214 c3 -8 2 -12 -4 -9 -6 3 -10 10 -10 16 0 14 7 11 14 -7z
m-82 -16 c-7 -7 -12 -8 -12 -2 0 6 3 14 7 17 3 4 9 5 12 2 2 -3 -1 -11 -7 -17z
m-337 -18 c19 -8 19 -9 -2 -9 -12 -1 -25 4 -28 9 -7 12 2 12 30 0z m119 -5
c-4 -8 -10 -15 -15 -15 -4 0 -6 7 -3 15 4 8 10 15 15 15 4 0 6 -7 3 -15z
m-274 -21 c0 -2 -11 -4 -25 -4 -14 0 -25 4 -25 9 0 4 11 6 25 3 14 -2 25 -6
25 -8z m-160 -8 c0 -2 -7 -7 -16 -10 -8 -3 -12 -2 -9 4 6 10 25 14 25 6z
m1210 -86 c0 -103 17 -89 -140 -114 -66 -11 -96 -12 -101 -5 -3 6 -7 49 -8 95
l-2 83 33 5 c81 12 156 22 186 24 l32 1 0 -89z m-740 76 c0 -2 2 -11 6 -19 3
-8 -6 -21 -22 -32 -14 -9 -24 -13 -21 -8 3 5 2 15 -3 23 -10 17 5 40 26 40 8
0 14 -2 14 -4z m290 -138 c0 -13 -23 -5 -28 10 -2 7 2 10 12 6 9 -3 16 -11 16
-16z m-383 -23 c0 -17 -13 -20 -21 -6 -4 5 0 12 6 14 7 3 13 6 14 6 0 1 1 -6
1 -14z m2783 -34 c0 -34 -4 -41 -27 -49 l-28 -10 28 -1 c36 -1 36 -27 0 -34
-16 -3 -30 -2 -33 2 -3 4 -13 10 -22 14 -13 4 -18 17 -18 41 0 31 5 38 38 55
54 29 62 27 62 -18z m-3300 13 c0 -7 -4 -16 -10 -19 -5 -3 -10 -1 -10 5 0 6
-4 9 -9 6 -5 -3 -11 0 -14 8 -4 9 2 14 19 14 13 0 24 -6 24 -14z m574 -10 c9
-24 2 -26 -12 -4 -7 11 -8 20 -3 20 5 0 12 -7 15 -16z m1030 -42 c0 -12 5 -22
13 -22 7 0 13 -4 13 -10 0 -5 -7 -10 -15 -10 -12 0 -15 -10 -12 -45 5 -52 11
-62 30 -47 8 7 18 7 27 2 12 -8 11 -10 -5 -11 -24 -1 -22 -2 73 -29 l72 -22 0
-54 c0 -47 2 -54 20 -54 11 0 20 -5 20 -11 0 -7 -11 -9 -27 -6 -34 7 -133 -22
-133 -39 0 -16 -62 -36 -85 -28 -12 5 -16 4 -12 -3 4 -6 -6 -16 -23 -22 l-31
-10 2 95 c1 89 3 95 20 91 11 -3 19 -1 19 5 0 5 5 6 10 3 6 -4 10 18 10 59 l0
65 -32 3 c-32 3 -32 3 -35 64 l-2 60 42 -1 c36 -1 42 -4 41 -23z m696 18 c0
-5 -5 -10 -11 -10 -5 0 -7 5 -4 10 3 6 8 10 11 10 2 0 4 -4 4 -10z m200 0 c0
-13 -20 -13 -40 0 -12 8 -9 10 13 10 15 0 27 -4 27 -10z m140 -10 c0 -12 -24
-12 -60 0 -21 7 -19 8 18 9 23 1 42 -3 42 -9z m546 -22 c-3 -29 -6 -33 -31
-30 -18 3 -25 0 -21 -7 4 -6 16 -11 26 -11 10 0 22 -5 26 -11 5 -8 -3 -10 -25
-7 -38 6 -40 1 -4 -13 21 -8 24 -12 13 -19 -8 -5 -18 -6 -22 -4 -4 3 -8 0 -8
-7 0 -10 -3 -10 -12 -1 -7 7 -21 12 -31 12 -13 0 -17 5 -13 16 3 8 2 12 -4 9
-6 -3 -11 1 -11 9 -1 9 -2 24 -3 33 -1 20 67 63 101 63 20 0 22 -4 19 -32z
m-421 13 c-6 -5 -28 -6 -50 -1 l-40 8 50 1 c29 1 45 -3 40 -8z m-2825 -11 c0
-5 -4 -10 -10 -10 -5 0 -10 5 -10 10 0 6 5 10 10 10 6 0 10 -4 10 -10z m2500
1 c0 -5 -11 -11 -24 -13 -17 -4 -23 -1 -19 9 6 14 43 18 43 4z m393 2 c-7 -2
-19 -2 -25 0 -7 3 -2 5 12 5 14 0 19 -2 13 -5z m67 -3 c0 -5 -6 -10 -14 -10
-8 0 -18 5 -21 10 -3 6 3 10 14 10 12 0 21 -4 21 -10z m-2526 -9 c3 -5 -6 -8
-19 -8 -14 0 -25 3 -25 8 0 5 9 9 19 9 11 0 22 -4 25 -9z m2274 2 c20 -5 23
-11 20 -40 -5 -43 16 -58 52 -37 l25 14 -27 -6 c-27 -6 -28 -4 -28 31 l0 38
67 -7 c36 -4 70 -9 75 -12 4 -3 8 -23 8 -45 l0 -39 49 0 c27 0 58 -2 68 -5 10
-3 5 1 -10 8 -16 8 -28 18 -28 23 1 5 -3 9 -9 8 -27 -3 -31 -5 -25 -14 3 -6
-1 -7 -9 -4 -10 4 -16 19 -16 41 0 28 3 34 16 29 9 -3 36 -6 60 -6 l44 0 0
-45 c0 -43 1 -45 25 -39 15 4 25 2 26 -5 6 -58 9 -56 -71 -55 -120 0 -270 19
-270 34 0 4 -7 11 -16 14 -12 5 -15 2 -10 -10 5 -14 -2 -15 -57 -10 -34 4
-111 8 -172 11 -164 6 -375 27 -375 37 0 5 8 7 18 4 9 -2 62 -7 117 -10 91 -4
95 -4 43 6 -32 6 -58 14 -58 19 0 6 -10 14 -22 19 -16 6 2 9 62 7 l85 -2 0
-30 c1 -26 5 -30 30 -33 17 -1 25 1 18 5 -6 4 -13 17 -15 28 -3 23 5 23 202
12 58 -3 95 -4 83 -1 -13 3 -23 12 -23 20 0 8 -6 14 -14 14 -7 0 -19 7 -26 15
-7 8 -16 12 -21 9 -5 -3 -9 0 -9 5 0 12 80 15 118 4z m325 0 c-7 -2 -21 -2
-30 0 -10 3 -4 5 12 5 17 0 24 -2 18 -5z m57 -3 c0 -5 -7 -7 -15 -4 -8 4 -15
8 -15 10 0 2 7 4 15 4 8 0 15 -4 15 -10z m1666 -57 c-1 -21 -7 -44 -14 -52
-11 -11 -12 -9 -7 15 6 27 5 28 -8 11 -11 -13 -17 -15 -22 -7 -4 7 5 24 21 40
16 15 29 28 30 29 0 1 0 -16 0 -36z m329 27 c3 -5 1 -10 -4 -10 -6 0 -11 5
-11 10 0 6 2 10 4 10 3 0 8 -4 11 -10z m-1987 -22 c-5 -34 -38 -37 -38 -4 0
20 5 26 21 26 15 0 20 -5 17 -22z m200 0 c11 -14 10 -18 -6 -27 -17 -9 -20 -8
-17 7 2 9 4 23 4 31 1 8 2 12 4 10 1 -2 8 -12 15 -21z m1547 -10 c5 -5 4 -8
-4 -8 -7 0 -9 -4 -6 -10 3 -5 15 -10 26 -10 10 0 19 -7 19 -15 0 -8 -5 -15
-11 -15 -6 0 -8 -9 -4 -20 4 -11 2 -20 -4 -20 -6 0 -11 7 -11 16 0 13 -3 14
-14 5 -10 -8 -16 -8 -25 3 -6 8 -11 18 -9 22 1 5 -6 21 -16 36 -23 35 -14 51
22 36 15 -7 31 -15 37 -20z m-185 2 c8 -5 11 -12 7 -16 -4 -4 -15 0 -24 9 -18
18 -8 23 17 7z m-3992 -18 c2 -7 -2 -10 -12 -6 -9 3 -16 11 -16 16 0 13 23 5
28 -10z m740 6 c-3 -7 -17 -13 -31 -14 -22 -1 -25 2 -16 12 14 18 52 18 47 2z
m-798 -19 c0 -6 -4 -7 -10 -4 -5 3 -10 1 -10 -4 0 -6 -4 -11 -10 -11 -19 0
-10 26 10 27 11 1 20 -3 20 -8z m4471 -6 c13 -16 12 -17 -3 -4 -10 7 -18 15
-18 17 0 8 8 3 21 -13z m-3711 -10 c-1 -24 -19 -35 -51 -28 -23 4 -29 3 -20
-3 9 -7 -3 -9 -38 -9 -28 0 -49 2 -48 3 3 3 139 42 150 43 4 1 7 -2 7 -6z
m253 -13 c3 -13 0 -20 -9 -20 -8 0 -14 9 -14 20 0 11 4 20 9 20 5 0 11 -9 14
-20z m332 10 c3 -5 -1 -10 -10 -10 -9 0 -13 5 -10 10 3 6 8 10 10 10 2 0 7 -4
10 -10z m1575 -7 c0 -15 2 -14 15 3 14 18 14 18 15 -10 0 -21 -4 -27 -15 -22
-9 3 -15 0 -15 -9 0 -10 -11 -15 -34 -15 -29 0 -34 4 -33 20 1 14 8 20 24 20
14 0 23 6 23 15 0 8 5 15 10 15 6 0 10 -8 10 -17z m-380 -3 c0 -5 -2 -10 -4
-10 -3 0 -8 5 -11 10 -3 6 -1 10 4 10 6 0 11 -4 11 -10z m35 0 c3 -5 -1 -10
-9 -10 -9 0 -16 5 -16 10 0 6 4 10 9 10 6 0 13 -4 16 -10z m1770 0 c3 -5 2
-10 -4 -10 -5 0 -16 -3 -25 -6 -11 -4 -16 -1 -16 10 0 18 35 22 45 6z m-3128
-6 c-3 -3 -12 -4 -19 -1 -8 3 -5 6 6 6 11 1 17 -2 13 -5z m108 -9 c39 -3 86
-10 105 -15 l35 -10 -40 5 c-22 2 -73 7 -113 11 -40 4 -75 10 -78 15 -3 5 1 7
8 4 7 -2 45 -6 83 -10z m2843 -25 c-7 -11 -17 -20 -23 -20 -5 0 -3 -5 5 -10 9
-6 10 -10 3 -10 -6 0 -15 5 -18 10 -8 14 -26 13 -22 -1 1 -6 -4 -14 -10 -16
-10 -3 -11 2 -4 19 5 14 17 23 32 24 13 1 25 7 27 13 2 6 8 11 13 11 5 0 4 -9
-3 -20z m42 -22 c0 -6 -6 -5 -15 2 -8 7 -15 14 -15 16 0 2 7 1 15 -2 8 -4 15
-11 15 -16z m-4133 -10 c-3 -8 -6 -5 -6 6 -1 11 2 17 5 13 3 -3 4 -12 1 -19z
m3767 -26 c-4 -18 -10 -29 -15 -27 -4 3 -3 19 3 36 13 38 20 32 12 -9z m-89
18 c3 -5 1 -10 -4 -10 -6 0 -11 5 -11 10 0 6 2 10 4 10 3 0 8 -4 11 -10z m541
-27 c-10 -10 -19 5 -10 18 6 11 8 11 12 0 2 -7 1 -15 -2 -18z m-386 7 c0 -5
-2 -10 -4 -10 -3 0 -8 5 -11 10 -3 6 -1 10 4 10 6 0 11 -4 11 -10z m-161 -34
c-3 -3 -11 5 -18 17 -13 21 -12 21 5 5 10 -10 16 -20 13 -22z m100 -3 c14 10
14 10 3 -5 -14 -17 -42 -14 -42 5 0 8 4 7 12 -1 9 -9 15 -9 27 1z m96 -31 c-5
-5 -45 22 -45 31 0 4 11 0 24 -10 13 -10 23 -19 21 -21z m371 24 c16 -17 18
-45 4 -66 -8 -11 -9 -7 -6 15 4 19 0 35 -11 47 -19 21 -8 24 13 4z m-536 -6
c0 -5 -4 -10 -10 -10 -5 0 -10 5 -10 10 0 6 5 10 10 10 6 0 10 -4 10 -10z m35
-20 c-3 -5 -10 -10 -16 -10 -5 0 -9 5 -9 10 0 6 7 10 16 10 8 0 12 -4 9 -10z
m195 -40 c-6 -12 -14 -20 -17 -17 -2 3 1 14 8 26 17 26 24 19 9 -9z m-150 5
c-7 -9 -15 -13 -19 -10 -3 3 1 10 9 15 21 14 24 12 10 -5z m-104 -19 c0 -14
-4 -22 -8 -20 -4 3 -8 14 -8 25 0 10 4 19 8 19 4 0 8 -11 8 -24z m551 -58 c-3
-8 -6 -5 -6 6 -1 11 2 17 5 13 3 -3 4 -12 1 -19z m-1799 5 c-16 -2 -40 -2 -55
0 -16 2 -3 4 27 4 30 0 43 -2 28 -4z m110 0 c-10 -2 -28 -2 -40 0 -13 2 -5 4
17 4 22 1 32 -1 23 -4z m1582 -22 c0 -5 -9 -7 -20 -4 -11 3 -20 7 -20 9 0 2 9
4 20 4 11 0 20 -4 20 -9z m-1784 -37 c-5 -13 -4 -14 7 -6 8 7 17 9 20 5 15
-15 5 -22 -28 -21 -34 1 -34 2 -18 19 23 23 27 23 19 3z m1637 -14 c7 0 14 -6
14 -13 0 -18 -44 -20 -51 -2 -3 9 -15 13 -36 10 -34 -4 -36 -2 -14 19 14 14
18 14 44 1 16 -8 35 -15 43 -15z m387 11 c0 -5 -13 -16 -30 -24 -20 -10 -29
-11 -27 -4 2 9 31 29 55 36 1 1 2 -3 2 -8z m-419 -57 c15 -15 25 -33 22 -40
-3 -8 -9 -12 -13 -9 -5 3 -11 -4 -15 -14 -11 -35 -38 -13 -32 25 3 19 1 36 -4
40 -9 5 -3 24 9 24 3 0 18 -12 33 -26z m433 -29 c-4 -8 -10 -15 -15 -15 -5 0
-9 7 -9 15 0 8 7 15 15 15 9 0 12 -6 9 -15z m-174 -12 c0 -5 -5 -15 -10 -23
-8 -12 -10 -11 -10 8 0 12 5 22 10 22 6 0 10 -3 10 -7z m-1433 -39 c-3 -3 -12
-4 -19 -1 -8 3 -5 6 6 6 11 1 17 -2 13 -5z m1203 -9 c0 -8 -4 -15 -10 -15 -5
0 -10 7 -10 15 0 8 5 15 10 15 6 0 10 -7 10 -15z m285 5 c3 -5 1 -10 -4 -10
-6 0 -11 5 -11 10 0 6 2 10 4 10 3 0 8 -4 11 -10z m60 -38 c-9 -9 -35 8 -35
24 0 16 2 16 20 -1 11 -10 18 -20 15 -23z m-50 -11 c-3 -6 -11 -11 -17 -11 -6
0 -6 6 2 15 14 17 26 13 15 -4z m65 -29 c3 -3 -5 -1 -17 2 -18 6 -21 4 -16
-14 4 -17 8 -18 14 -8 7 10 9 9 9 -5 0 -10 7 -20 15 -23 15 -6 21 -35 9 -47
-6 -6 -39 10 -61 30 -17 15 -17 60 0 77 11 13 17 12 47 -12z m-100 -2 c0 -11
5 -20 11 -20 6 0 3 -7 -6 -16 -9 -9 -13 -24 -10 -33 4 -10 3 -12 -3 -6 -12 12
-23 81 -15 89 12 12 23 5 23 -14z m168 -4 c-7 -8 -15 -12 -17 -11 -5 6 10 25
20 25 5 0 4 -6 -3 -14z m-1703 -16 c3 -5 -3 -10 -15 -10 -12 0 -18 5 -15 10 3
6 10 10 15 10 5 0 12 -4 15 -10z m57 -30 c5 0 6 5 2 12 -4 7 -3 8 4 4 15 -9 4
-36 -15 -36 -10 0 -14 -7 -10 -20 3 -13 0 -20 -10 -20 -9 0 -11 5 -7 13 5 8 2
7 -9 -2 -10 -8 -21 -10 -25 -6 -4 4 -1 10 6 12 18 7 44 34 38 41 -3 3 -14 -2
-23 -10 -16 -14 -20 -14 -38 4 -20 20 -20 20 13 13 29 -6 32 -4 33 17 l0 23
16 -22 c8 -13 20 -23 25 -23z m81 29 c7 7 19 5 38 -5 16 -8 29 -16 29 -17 0
-1 -20 -3 -45 -4 -50 -2 -74 -11 -56 -23 8 -4 9 -15 3 -30 l-9 -24 -12 23
c-10 18 -10 27 4 47 14 22 14 24 0 24 -9 0 -13 5 -10 10 4 7 13 6 27 -1 14 -7
23 -8 31 0z m87 -47 c0 -4 -9 -8 -19 -8 -11 0 -17 4 -15 8 3 4 12 8 20 8 8 0
14 -4 14 -8z m-287 -21 c4 0 7 -6 7 -13 0 -9 -3 -9 -11 -1 -7 7 -25 9 -42 6
-18 -4 -28 -2 -24 3 5 8 38 11 70 5z m317 5 c0 -2 -7 -7 -16 -10 -8 -3 -12 -2
-9 4 6 10 25 14 25 6z m686 -33 c-11 -11 -19 6 -11 24 8 17 8 17 12 0 3 -10 2
-21 -1 -24z m-869 12 c0 -8 -4 -15 -9 -15 -4 0 -8 7 -8 15 0 8 4 15 8 15 5 0
9 -7 9 -15z m186 -10 c-3 -9 -8 -14 -10 -11 -3 3 -2 9 2 15 9 16 15 13 8 -4z
m704 -17 c-3 -7 -5 -2 -5 12 0 14 2 19 5 13 2 -7 2 -19 0 -25z m648 22 c4 -6
11 -8 16 -5 5 3 6 -1 3 -10 -5 -11 0 -18 15 -22 16 -4 21 -13 21 -40 0 -29 -3
-33 -13 -24 -8 6 -16 9 -19 6 -11 -11 -41 37 -44 70 -3 33 8 46 21 25z m-1475
-4 c0 -3 -4 -8 -10 -11 -5 -3 -10 -1 -10 4 0 6 5 11 10 11 6 0 10 -2 10 -4z
m154 -17 c-3 -5 -10 -7 -15 -3 -5 3 -7 10 -3 15 3 5 10 7 15 3 5 -3 7 -10 3
-15z m-404 1 c0 -5 -7 -7 -15 -4 -8 4 -15 8 -15 10 0 2 7 4 15 4 8 0 15 -4 15
-10z m153 -7 c-7 -2 -21 -2 -30 0 -10 3 -4 5 12 5 17 0 24 -2 18 -5z m1042 -4
c4 -6 5 -12 2 -15 -7 -7 -37 7 -37 17 0 13 27 11 35 -2z m61 -16 c-10 -10 -19
5 -10 18 6 11 8 11 12 0 2 -7 1 -15 -2 -18z m-984 -16 c5 -9 17 -17 26 -18 9
0 4 -5 -11 -9 -29 -9 -77 5 -77 22 0 4 9 3 20 -4 26 -16 39 -2 14 16 -18 14
-18 15 0 12 10 -1 22 -10 28 -19z m135 -13 c-9 -9 -28 6 -21 18 4 6 10 6 17
-1 6 -6 8 -13 4 -17z m-227 6 c0 -5 -4 -10 -10 -10 -5 0 -10 5 -10 10 0 6 5
10 10 10 6 0 10 -4 10 -10z m1141 -23 c-5 -12 -17 -24 -27 -26 -18 -3 -18 -2
-1 16 9 11 17 25 17 32 0 7 4 10 10 6 5 -3 6 -15 1 -28z m-1317 7 c3 -8 2 -12
-4 -9 -6 3 -10 10 -10 16 0 14 7 11 14 -7z m1701 -2 c-3 -3 -11 0 -18 7 -9 10
-8 11 6 5 10 -3 15 -9 12 -12z m114 4 c9 -11 9 -20 2 -34 -6 -11 -7 -23 -3
-27 4 -5 1 -5 -6 -1 -9 5 -11 17 -8 32 4 14 2 24 -4 24 -5 0 -10 5 -10 10 0
15 16 12 29 -4z m-1424 -16 c3 -6 -1 -7 -9 -4 -18 7 -21 14 -7 14 6 0 13 -4
16 -10z m1001 -35 c-2 -7 1 -18 7 -24 7 -7 -3 -5 -21 4 -18 9 -30 21 -26 26 3
5 2 9 -3 8 -20 -3 -25 2 -13 16 10 12 15 12 36 -2 14 -9 23 -21 20 -28z m226
26 c14 -2 27 -38 21 -59 -5 -21 -6 -21 -35 -4 -19 11 -28 23 -24 34 2 10 0 18
-5 18 -5 0 -9 4 -9 9 0 7 20 8 52 2z m-1662 -5 c0 -2 -9 -6 -20 -9 -11 -3 -20
-1 -20 4 0 5 9 9 20 9 11 0 20 -2 20 -4z m1812 -20 c10 -7 15 -16 11 -19 -11
-12 -22 -8 -33 13 -12 23 -3 25 22 6z m-1702 -6 c0 -5 -2 -10 -4 -10 -3 0 -8
5 -11 10 -3 6 -1 10 4 10 6 0 11 -4 11 -10z m-1400 -4 c0 -2 -7 -7 -16 -10 -8
-3 -12 -2 -9 4 6 10 25 14 25 6z m1385 -16 c3 -5 2 -10 -4 -10 -5 0 -13 5 -16
10 -3 6 -2 10 4 10 5 0 13 -4 16 -10z m-96 -21 c-16 -10 -23 -4 -14 10 3 6 11
8 17 5 6 -4 5 -9 -3 -15z m135 6 c-4 -8 -11 -12 -16 -9 -6 4 -5 10 3 15 19 12
19 11 13 -6z m140 -17 c-7 -10 -34 -10 -34 0 0 4 5 13 12 20 9 9 14 9 19 0 4
-7 5 -16 3 -20z m-207 16 c-3 -3 -12 -4 -19 -1 -8 3 -5 6 6 6 11 1 17 -2 13
-5z m103 -9 c0 -8 -4 -15 -10 -15 -5 0 -7 7 -4 15 4 8 8 15 10 15 2 0 4 -7 4
-15z m1517 -34 c12 -9 23 -24 23 -33 0 -19 -20 -24 -35 -9 -8 8 -38 16 -77 20
-5 1 -8 6 -8 12 0 8 5 8 15 -1 18 -15 19 -7 5 21 -6 11 -8 24 -5 30 7 10 25 1
82 -40z m146 14 c-8 -22 -22 -18 -16 5 3 11 9 17 14 15 4 -3 6 -12 2 -20z
m-3293 5 c0 -5 -5 -10 -11 -10 -5 0 -7 5 -4 10 3 6 8 10 11 10 2 0 4 -4 4 -10z
m3240 6 c0 -2 -7 -7 -16 -10 -8 -3 -12 -2 -9 4 6 10 25 14 25 6z m-1729 -19
c-6 -8 -21 -13 -33 -11 -35 4 -35 6 -3 14 45 11 48 11 36 -3z m1809 -39 c-1
-34 -3 -39 -11 -26 -8 15 -3 68 7 68 2 0 4 -19 4 -42z m-1916 0 c-3 -5 -12 -4
-20 3 -19 16 -18 18 6 12 11 -3 17 -9 14 -15z m71 3 c3 -5 1 -12 -5 -16 -5 -3
-10 -1 -10 5 0 6 -4 8 -10 5 -5 -3 -10 -1 -10 4 0 13 27 14 35 2z m35 -1 c0
-5 -2 -10 -4 -10 -3 0 -8 5 -11 10 -3 6 -1 10 4 10 6 0 11 -4 11 -10z m-156
-12 c-5 -8 -2 -9 9 -5 10 3 17 2 17 -2 0 -13 -28 -22 -35 -11 -6 10 2 30 11
30 3 0 2 -5 -2 -12z m381 2 c-3 -5 -12 -7 -20 -3 -15 5 -19 -4 -16 -42 1 -18
1 -19 -9 -3 -15 24 4 58 31 58 11 0 18 -4 14 -10z m-1352 -15 c-3 -9 -8 -14
-10 -11 -3 3 -2 9 2 15 9 16 15 13 8 -4z m2854 2 c11 4 14 2 11 -8 -3 -8 -11
-13 -17 -11 -6 1 -11 -3 -11 -9 0 -5 -4 -8 -9 -5 -5 3 -7 16 -3 28 3 12 7 17
9 11 3 -7 11 -9 20 -6z m-1567 -7 c0 -5 -5 -10 -11 -10 -5 0 -7 5 -4 10 3 6 8
10 11 10 2 0 4 -4 4 -10z m-296 -24 c-10 -8 -21 -12 -24 -10 -5 6 21 24 34 24
6 0 1 -6 -10 -14z m96 -47 c0 -6 -7 -18 -16 -27 -15 -15 -16 -14 -9 7 5 18 4
22 -5 16 -9 -5 -11 -4 -6 3 9 15 36 16 36 1z m204 -15 c3 -8 2 -12 -4 -9 -6 3
-10 10 -10 16 0 14 7 11 14 -7z m67 -7 c-10 -9 -11 -8 -5 6 3 10 9 15 12 12 3
-3 0 -11 -7 -18z m-182 -4 c-7 -10 -14 -20 -16 -22 -1 -2 -1 6 0 18 1 11 8 21
15 21 12 0 12 -3 1 -17z m-1589 -13 c0 -5 -5 -10 -11 -10 -5 0 -7 5 -4 10 3 6
8 10 11 10 2 0 4 -4 4 -10z m1525 0 c-8 -13 -35 -13 -35 0 0 6 9 10 21 10 11
0 17 -4 14 -10z"/>
<path d="M946 1861 c-3 -5 1 -12 10 -15 22 -8 25 -4 9 11 -8 7 -16 9 -19 4z"/>
<path d="M1300 1809 c0 -5 5 -7 10 -4 6 3 10 8 10 11 0 2 -4 4 -10 4 -5 0 -10
-5 -10 -11z"/>
<path d="M920 1600 c-8 -5 -10 -10 -5 -10 6 0 17 5 25 10 8 5 11 10 5 10 -5 0
-17 -5 -25 -10z"/>
<path d="M4105 1100 c28 -12 37 -12 30 0 -3 6 -16 10 -28 9 -21 0 -21 -1 -2
-9z"/>
<path d="M5890 641 c0 -25 6 -27 13 -6 4 8 2 17 -3 20 -6 4 -10 -3 -10 -14z"/>
<path d="M1408 2783 c6 -2 18 -2 25 0 6 3 1 5 -13 5 -14 0 -19 -2 -12 -5z"/>
<path d="M1465 2770 c11 -5 29 -8 40 -8 16 0 15 2 -5 8 -34 11 -60 11 -35 0z"/>
<path d="M1548 2753 c7 -3 16 -2 19 1 4 3 -2 6 -13 5 -11 0 -14 -3 -6 -6z"/>
<path d="M1588 2743 c7 -3 16 -2 19 1 4 3 -2 6 -13 5 -11 0 -14 -3 -6 -6z"/>
<path d="M1638 2733 c7 -3 16 -2 19 1 4 3 -2 6 -13 5 -11 0 -14 -3 -6 -6z"/>
<path d="M2738 2313 c7 -3 16 -2 19 1 4 3 -2 6 -13 5 -11 0 -14 -3 -6 -6z"/>
<path d="M2788 2293 c5 -21 7 -23 10 -9 2 10 0 22 -6 28 -6 6 -7 0 -4 -19z"/>
<path d="M2793 2190 c0 -30 2 -43 4 -27 2 15 2 39 0 55 -2 15 -4 2 -4 -28z"/>
<path d="M2792 2028 c-1 -58 -6 -98 -12 -98 -5 0 -10 15 -10 34 0 19 -4 37 -9
40 -4 3 -6 -6 -3 -19 3 -16 0 -25 -8 -25 -7 0 -10 7 -7 15 4 8 2 17 -2 19 -5
3 -7 17 -6 30 2 14 -4 31 -13 38 -14 12 -15 8 -9 -29 6 -38 5 -41 -13 -36 -11
3 -20 0 -20 -6 0 -6 -6 -11 -12 -11 -7 1 -2 10 11 20 l23 20 -23 0 c-13 0 -33
3 -44 6 -16 4 -23 -1 -32 -23 l-12 -28 6 28 5 27 -78 -1 c-44 -1 -71 -3 -62
-6 21 -5 19 -28 -7 -66 -22 -34 -11 -47 43 -47 22 0 32 -5 32 -15 0 -18 9 -19
33 -1 12 9 45 14 95 14 l77 -1 -58 -7 c-79 -10 -83 -20 -9 -20 49 0 62 -3 62
-16 0 -12 -14 -15 -82 -13 -46 1 -99 1 -118 0 l-35 -1 25 -13 c14 -7 37 -12
53 -12 20 1 27 -3 27 -17 0 -10 -5 -18 -11 -18 -5 0 -7 -4 -4 -10 3 -5 46 -10
96 -10 l89 0 0 70 c0 40 4 70 10 70 6 0 10 -30 10 -70 0 -40 4 -70 10 -70 6 0
10 30 10 70 l0 70 45 0 c25 0 45 -1 46 -2 0 -2 3 -95 6 -208 3 -113 7 -207 9
-209 2 -2 4 90 4 205 0 150 3 213 12 222 9 9 -3 12 -55 12 l-66 0 -6 33 c-3
17 -6 61 -8 97 -2 48 -4 40 -5 -32z m-248 -26 c3 -5 -8 -9 -25 -9 -19 0 -25 3
-17 9 17 10 35 10 42 0z m82 -29 c-10 -10 -19 5 -10 18 6 11 8 11 12 0 2 -7 1
-15 -2 -18z m-116 -13 c0 -5 -2 -10 -4 -10 -3 0 -8 5 -11 10 -3 6 -1 10 4 10
6 0 11 -4 11 -10z"/>
<path d="M2231 1998 c-1 -63 2 -78 14 -78 20 0 20 83 0 125 -13 29 -13 26 -14
-47z"/>
<path d="M6155 2042 c-16 -2 -37 -6 -45 -9 -8 -3 -28 -7 -45 -9 -58 -6 -90
-12 -105 -17 -8 -3 -98 -8 -200 -10 -177 -4 -192 -6 -345 -44 -88 -23 -182
-46 -210 -52 -78 -17 -363 -43 -398 -36 l-32 5 30 -14 30 -14 -42 3 c-24 1
-43 -1 -43 -4 0 -4 -26 -6 -57 -6 -32 1 -63 -2 -68 -6 -6 -4 -24 -9 -40 -11
-17 -2 -32 -6 -35 -10 -3 -4 -18 -1 -34 7 -32 17 -36 18 -35 8 3 -20 -2 -26
-11 -13 -8 13 -10 13 -10 -2 0 -22 -64 -36 -84 -18 -15 12 -140 9 -185 -6 -15
-4 -22 -3 -18 3 7 10 -113 11 -130 0 -11 -7 -159 28 -186 43 -10 6 -22 8 -28
4 -5 -3 -15 -1 -22 4 -7 6 -30 10 -52 11 -22 0 -58 4 -79 7 -33 5 -38 4 -33
-9 3 -9 -1 -17 -11 -19 -25 -7 -42 1 -35 18 3 8 0 14 -6 14 -6 0 -11 -4 -11
-10 0 -5 -9 -10 -20 -10 -12 0 -17 -5 -14 -14 3 -8 -3 -16 -15 -19 -14 -3 -18
-1 -14 9 6 16 -13 19 -22 4 -10 -16 -28 -12 -21 5 7 19 -1 19 -21 -1 -14 -13
-14 -17 -2 -25 11 -7 11 -9 -3 -9 -9 0 -34 -11 -54 -25 -20 -14 -43 -25 -51
-25 -8 0 -11 -5 -7 -11 6 -10 106 -10 719 1 22 0 26 3 15 10 -8 5 -11 12 -7
16 14 14 379 16 917 5 870 -18 955 -21 1140 -37 96 -8 199 -16 228 -18 l52 -5
0 176 0 175 -107 -4 c-60 -2 -121 -4 -138 -6z m-2460 -202 c3 -5 2 -10 -4 -10
-5 0 -13 5 -16 10 -3 6 -2 10 4 10 5 0 13 -4 16 -10z m1172 4 c-3 -3 -12 -4
-19 -1 -8 3 -5 6 6 6 11 1 17 -2 13 -5z m-1100 -20 c-3 -3 -12 -4 -19 -1 -8 3
-5 6 6 6 11 1 17 -2 13 -5z m556 -41 c-7 -2 -21 -2 -30 0 -10 3 -4 5 12 5 17
0 24 -2 18 -5z"/>
<path d="M4693 1863 c9 -2 25 -2 35 0 9 3 1 5 -18 5 -19 0 -27 -2 -17 -5z"/>
<path d="M4628 1853 c7 -3 16 -2 19 1 4 3 -2 6 -13 5 -11 0 -14 -3 -6 -6z"/>
<path d="M2488 1805 c-6 -30 -3 -43 8 -33 3 4 4 19 2 35 l-3 28 -7 -30z"/>
<path d="M2410 1794 c0 -24 14 -30 44 -18 9 3 16 10 16 16 0 5 -4 6 -10 3 -5
-3 -10 -2 -10 3 0 5 -9 12 -20 15 -16 4 -20 0 -20 -19z"/>
<path d="M4335 1815 c25 -8 115 -11 115 -4 0 5 -28 9 -62 8 -35 0 -58 -2 -53
-4z"/>
<path d="M4398 1793 c7 -3 16 -2 19 1 4 3 -2 6 -13 5 -11 0 -14 -3 -6 -6z"/>
<path d="M2322 1781 c-11 -7 -10 -10 3 -15 23 -9 25 -8 25 9 0 17 -9 19 -28 6z"/>
<path d="M3325 1760 c-16 -7 -17 -9 -3 -9 9 -1 20 4 23 9 7 11 7 11 -20 0z"/>
<path d="M3285 1450 c-3 -5 -26 -7 -52 -3 -37 5 -44 3 -38 -7 6 -10 0 -12 -31
-6 -56 11 -72 9 -90 -8 -14 -15 -7 -16 78 -17 51 -1 104 -3 118 -5 14 -1 87
-3 162 -4 110 -1 148 2 190 16 l53 19 -40 5 c-22 3 -44 3 -49 -1 -5 -4 -15 -5
-24 -2 -10 4 -13 2 -8 -5 4 -7 3 -12 -2 -12 -6 0 -12 7 -16 15 -7 20 -33 19
-61 -3 -29 -23 -87 -19 -78 6 5 13 0 14 -35 10 -26 -4 -43 -2 -46 6 -2 6 -5 3
-5 -7 -1 -10 -6 -15 -11 -12 -6 4 -8 11 -5 16 4 5 4 9 1 9 -3 0 -8 -4 -11 -10z"/>
<path d="M3420 1441 c0 -16 28 -20 34 -5 4 9 -1 14 -14 14 -11 0 -20 -4 -20
-9z"/>
<path d="M6377 1404 c-8 -8 1 -24 14 -24 5 0 9 7 9 15 0 15 -12 20 -23 9z"/>
<path d="M3978 1363 c7 -3 16 -2 19 1 4 3 -2 6 -13 5 -11 0 -14 -3 -6 -6z"/>
<path d="M4155 1364 c28 -2 111 -9 185 -15 74 -6 152 -10 172 -10 20 1 39 -3
43 -9 3 -5 12 -10 18 -10 7 0 6 4 -3 11 -12 8 -10 9 10 5 14 -3 31 -2 38 3 8
4 -38 11 -105 14 -137 8 -432 16 -358 11z"/>
<path d="M3928 1353 c7 -3 16 -2 19 1 4 3 -2 6 -13 5 -11 0 -14 -3 -6 -6z"/>
<path d="M4510 1326 c0 -2 7 -7 16 -10 8 -3 12 -2 9 4 -6 10 -25 14 -25 6z"/>
<path d="M4213 1313 c15 -2 37 -2 50 0 12 2 0 4 -28 4 -27 0 -38 -2 -22 -4z"/>
<path d="M6380 1300 c0 -11 5 -20 10 -20 6 0 10 9 10 20 0 11 -4 20 -10 20 -5
0 -10 -9 -10 -20z"/>
<path d="M4295 1301 l-30 -7 40 -6 c50 -8 196 -1 207 10 10 10 -175 13 -217 3z"/>
<path d="M4730 1241 c0 -5 7 -14 15 -21 9 -7 14 -19 11 -26 -3 -8 0 -11 10 -7
8 3 13 12 10 20 -3 8 -6 21 -6 29 0 8 -9 14 -20 14 -11 0 -20 -4 -20 -9z"/>
<path d="M5007 1210 c-3 -11 -1 -23 5 -26 5 -4 3 -13 -6 -23 -9 -10 -13 -22
-9 -26 5 -5 1 -4 -8 3 -12 9 -20 9 -35 -2 -17 -13 -18 -15 -2 -21 10 -4 14
-13 11 -22 -4 -10 -2 -14 4 -10 6 4 16 0 23 -8 11 -13 10 -14 -4 -9 -9 3 -16
1 -16 -5 0 -6 6 -11 14 -11 7 0 19 -7 26 -15 11 -13 14 -13 26 2 12 16 15 16
24 3 5 -8 10 -10 10 -4 0 5 -18 26 -39 44 -33 30 -37 36 -23 46 18 13 25 64 9
65 -7 0 -4 4 6 8 17 6 17 9 4 19 -12 10 -16 9 -20 -8z m23 -144 c0 -3 -4 -8
-10 -11 -5 -3 -10 -1 -10 4 0 6 5 11 10 11 6 0 10 -2 10 -4z"/>
<path d="M4950 1170 c-13 -8 -12 -10 3 -10 9 0 17 5 17 10 0 12 -1 12 -20 0z"/>
<path d="M6290 1170 c0 -5 10 -14 23 -20 20 -10 20 -10 5 3 -10 8 -15 17 -11
20 3 4 1 7 -5 7 -7 0 -12 -4 -12 -10z"/>
<path d="M4910 1161 c0 -6 4 -13 10 -16 6 -3 7 1 4 9 -7 18 -14 21 -14 7z"/>
<path d="M5067 1114 c-3 -5 1 -15 9 -22 16 -14 18 -5 5 17 -5 7 -11 9 -14 5z"/>
<path d="M5036 1001 c-9 -14 5 -19 34 -10 14 4 20 7 13 8 -6 1 -18 4 -26 7 -8
3 -18 1 -21 -5z"/>
<path d="M5270 867 c0 -13 19 -37 30 -37 14 0 6 28 -12 39 -14 9 -18 8 -18 -2z"/>
<path d="M4238 763 c7 -3 16 -2 19 1 4 3 -2 6 -13 5 -11 0 -14 -3 -6 -6z"/>
<path d="M5286 754 c-10 -26 -7 -42 10 -48 14 -5 15 -4 5 8 -7 8 -10 24 -6 36
7 23 0 27 -9 4z"/>
<path d="M5494 735 c-9 -14 -15 -27 -13 -28 53 -30 52 -30 44 -10 -4 10 -7 28
-6 41 1 29 -5 28 -25 -3z"/>
<path d="M5587 743 c3 -7 6 -13 8 -13 2 0 5 6 8 13 3 8 -1 14 -8 14 -7 0 -11
-6 -8 -14z"/>
<path d="M5400 710 c0 -11 2 -20 4 -20 2 0 6 9 9 20 3 11 1 20 -4 20 -5 0 -9
-9 -9 -20z"/>
<path d="M5644 718 c-4 -5 -4 -11 -1 -14 6 -6 37 6 37 15 0 11 -30 9 -36 -1z"/>
<path d="M5697 711 c3 -12 9 -21 14 -21 14 0 11 16 -5 29 -12 10 -13 8 -9 -8z"/>
<path d="M5773 704 c-4 -11 -9 -12 -19 -3 -10 8 -14 8 -14 0 0 -6 0 -14 0 -18
0 -5 11 -8 25 -8 15 -1 25 5 25 13 0 9 7 11 20 7 11 -3 20 -2 20 3 0 16 -51
21 -57 6z"/>
<path d="M6041 698 c-1 -15 4 -30 9 -33 12 -7 12 12 0 40 -8 18 -9 17 -9 -7z"/>
<path d="M5603 703 c4 -3 2 -12 -4 -20 -9 -10 -8 -13 5 -13 9 0 16 8 16 20 0
11 -5 20 -12 20 -6 0 -8 -3 -5 -7z"/>
<path d="M4297 681 c-4 -16 0 -21 13 -21 10 0 20 9 23 20 3 11 1 20 -4 20 -5
0 -9 -6 -9 -12 0 -10 -2 -10 -9 0 -6 10 -10 9 -14 -7z"/>
<path d="M5230 686 c0 -9 5 -16 10 -16 6 0 10 4 10 9 0 6 -4 13 -10 16 -5 3
-10 -1 -10 -9z"/>
<path d="M5681 693 c-1 -6 -4 -20 -7 -30 -5 -17 -5 -17 6 0 6 10 9 23 6 30 -3
9 -5 9 -5 0z"/>
<path d="M5277 673 c-8 -12 30 -29 40 -19 4 3 -1 6 -9 6 -9 0 -18 5 -20 12 -3
9 -6 9 -11 1z"/>
<path d="M5632 660 c0 -14 2 -19 5 -12 2 6 2 18 0 25 -3 6 -5 1 -5 -13z"/>
<path d="M5816 658 c-8 -30 -8 -103 0 -95 4 3 8 21 10 39 2 18 6 43 9 56 3 12
1 22 -4 22 -5 0 -11 -10 -15 -22z"/>
<path d="M5473 663 c4 -3 2 -12 -4 -20 -15 -18 -1 -17 17 1 18 19 18 26 -3 26
-9 0 -13 -3 -10 -7z"/>
<path d="M5700 655 c0 -8 4 -15 10 -15 5 0 7 7 4 15 -4 8 -8 15 -10 15 -2 0
-4 -7 -4 -15z"/>
<path d="M5581 641 c-10 -17 -9 -20 5 -14 10 4 20 0 26 -10 5 -10 14 -17 21
-17 8 0 9 3 1 8 -5 4 -17 18 -26 30 -16 24 -16 24 -27 3z"/>
<path d="M5990 652 c0 -5 7 -15 15 -22 9 -7 15 -30 16 -54 0 -36 1 -38 10 -17
5 13 7 32 4 42 -4 11 -2 19 4 19 6 0 11 7 11 16 0 8 -4 12 -10 9 -5 -3 -19 -1
-30 5 -11 6 -20 7 -20 2z"/>
<path d="M4326 641 c-4 -5 1 -8 9 -7 21 3 31 16 12 16 -9 0 -18 -4 -21 -9z"/>
<path d="M5780 638 c0 -7 5 -20 10 -28 8 -12 10 -11 10 7 0 12 -4 25 -10 28
-5 3 -10 0 -10 -7z"/>
<path d="M5520 592 c0 -28 4 -53 9 -56 9 -6 6 92 -4 102 -3 3 -5 -18 -5 -46z"/>
<path d="M5664 605 c4 -22 3 -35 -2 -31 -5 3 -4 -12 1 -34 13 -48 22 -43 19 9
-2 30 2 40 20 50 l23 12 -22 -5 c-15 -3 -23 1 -23 9 0 8 -5 17 -11 21 -9 5
-10 -4 -5 -31z"/>
<path d="M6386 625 c4 -8 8 -15 10 -15 2 0 4 7 4 15 0 8 -4 15 -10 15 -5 0 -7
-7 -4 -15z"/>
<path d="M5344 621 c3 -5 -1 -12 -10 -15 -9 -4 -14 -9 -11 -13 8 -7 37 15 37
28 0 5 -5 9 -11 9 -5 0 -8 -4 -5 -9z"/>
<path d="M4657 603 c-15 -14 -6 -33 16 -32 20 0 21 1 2 8 -19 8 -19 8 0 19 16
9 17 11 4 12 -9 0 -19 -3 -22 -7z"/>
<path d="M4626 583 c-6 -14 -5 -15 5 -6 7 7 10 15 7 18 -3 3 -9 -2 -12 -12z"/>
<path d="M5386 585 c-9 -26 -7 -32 5 -12 6 10 9 21 6 23 -2 3 -7 -2 -11 -11z"/>
<path d="M5425 590 c-3 -5 1 -10 9 -10 9 0 16 5 16 10 0 6 -4 10 -9 10 -6 0
-13 -4 -16 -10z"/>
<path d="M5559 576 c-1 -9 -2 -22 -3 -28 -3 -22 34 -52 47 -39 8 8 6 11 -7 11
-10 0 -14 4 -10 12 5 7 3 8 -6 3 -10 -6 -11 -2 -6 18 3 14 2 29 -4 32 -5 3
-11 -1 -11 -9z"/>
<path d="M5626 574 c-3 -9 -2 -22 2 -31 6 -10 9 -5 9 16 0 35 -2 38 -11 15z"/>
<path d="M5780 579 c0 -5 -4 -7 -10 -4 -5 3 -10 1 -10 -4 0 -17 27 -13 34 4 3
8 1 15 -4 15 -6 0 -10 -5 -10 -11z"/>
<path d="M5836 582 c-3 -6 -1 -14 5 -17 14 -9 20 -2 10 14 -6 8 -11 9 -15 3z"/>
<path d="M4778 563 c7 -3 16 -2 19 1 4 3 -2 6 -13 5 -11 0 -14 -3 -6 -6z"/>
<path d="M5495 550 c3 -5 8 -10 11 -10 2 0 4 5 4 10 0 6 -5 10 -11 10 -5 0 -7
-4 -4 -10z"/>
<path d="M5725 551 c-3 -5 -1 -12 5 -16 5 -3 10 1 10 9 0 18 -6 21 -15 7z"/>
<path d="M5496 515 c-3 -8 -1 -15 4 -15 6 0 10 7 10 15 0 8 -2 15 -4 15 -2 0
-6 -7 -10 -15z"/>
<path d="M5731 504 c0 -11 3 -14 6 -6 3 7 2 16 -1 19 -3 4 -6 -2 -5 -13z"/>
<path d="M5780 518 c0 -2 4 -18 9 -36 6 -20 6 -32 0 -32 -15 0 -10 -27 7 -34
10 -4 14 -2 11 6 -2 7 2 21 11 30 13 16 13 18 -2 24 -9 3 -16 12 -16 19 0 8
-4 17 -10 20 -5 3 -10 5 -10 3z"/>
<path d="M4490 496 c0 -9 0 -19 -1 -23 0 -4 4 -9 10 -11 14 -5 14 35 1 43 -5
3 -10 -1 -10 -9z"/>
<path d="M5922 490 c0 -14 2 -19 5 -12 2 6 2 18 0 25 -3 6 -5 1 -5 -13z"/>
<path d="M5620 470 c0 -5 5 -10 11 -10 5 0 7 5 4 10 -3 6 -8 10 -11 10 -2 0
-4 -4 -4 -10z"/>
<path d="M5750 454 c0 -8 5 -12 10 -9 6 3 10 10 10 16 0 5 -4 9 -10 9 -5 0
-10 -7 -10 -16z"/>
<path d="M5550 445 c0 -8 4 -15 10 -15 5 0 7 7 4 15 -4 8 -8 15 -10 15 -2 0
-4 -7 -4 -15z"/>
<path d="M4306 427 c3 -10 9 -15 12 -12 3 3 0 11 -7 18 -10 9 -11 8 -5 -6z"/>
<path d="M4340 425 c-6 -8 -9 -19 -6 -24 11 -17 42 -8 53 16 10 20 9 23 -12
23 -12 0 -28 -7 -35 -15z m30 -10 c-7 -9 -15 -13 -17 -11 -7 7 7 26 19 26 6 0
6 -6 -2 -15z"/>
<path d="M5971 406 c-7 -8 -8 -17 -3 -20 6 -3 13 1 16 10 9 23 2 28 -13 10z"/>
<path d="M3256 374 c-17 -16 -40 -19 -30 -3 4 7 -3 6 -17 -2 -29 -15 -38 -12
144 -44 159 -27 212 -31 222 -15 3 6 2 10 -3 10 -5 0 -25 11 -44 24 -40 27
-79 35 -186 41 -53 3 -76 0 -86 -11z"/>
<path d="M4356 371 c-3 -5 1 -11 9 -15 8 -3 15 -1 15 4 0 13 -18 22 -24 11z"/>
<path d="M4346 324 c-5 -14 -4 -15 9 -4 17 14 19 20 6 20 -5 0 -12 -7 -15 -16z"/>
<path d="M4270 290 c8 -5 20 -10 25 -10 6 0 3 5 -5 10 -8 5 -19 10 -25 10 -5
0 -3 -5 5 -10z"/>
<path d="M4395 290 c-3 -5 -1 -10 4 -10 6 0 11 5 11 10 0 6 -2 10 -4 10 -3 0
-8 -4 -11 -10z"/>
<path d="M4307 267 c-10 -27 -8 -45 3 -27 5 8 10 10 10 5 0 -6 9 -11 20 -11
11 0 20 4 20 8 0 4 -9 8 -19 8 -11 0 -21 8 -23 18 -3 16 -4 16 -11 -1z"/>
<path d="M4412 252 c-9 -7 -8 -13 8 -27 19 -18 21 -17 40 5 22 25 28 42 8 22
-14 -14 -52 -16 -43 -2 7 12 4 12 -13 2z"/>
<path d="M6047 243 c-4 -3 -7 -11 -7 -17 0 -6 5 -5 12 2 6 6 9 14 7 17 -3 3
-9 2 -12 -2z"/>
<path d="M4190 215 c-7 -9 -8 -15 -2 -15 5 0 12 7 16 15 3 8 4 15 2 15 -2 0
-9 -7 -16 -15z"/>
<path d="M4258 213 c6 -2 18 -2 25 0 6 3 1 5 -13 5 -14 0 -19 -2 -12 -5z"/>
<path d="M3975 190 c4 -6 11 -8 16 -5 14 9 11 15 -7 15 -8 0 -12 -5 -9 -10z"/>
<path d="M4257 185 c-6 -15 10 -32 20 -21 4 3 1 6 -6 6 -7 0 -10 4 -6 10 3 5
12 7 20 3 8 -3 15 0 15 6 0 16 -37 13 -43 -4z"/>
<path d="M4001 126 c-19 -11 -21 -14 -7 -19 10 -4 20 1 26 13 12 23 12 23 -19
6z"/>
<path d="M4140 110 c0 -5 5 -10 11 -10 5 0 7 5 4 10 -3 6 -8 10 -11 10 -2 0
-4 -4 -4 -10z"/>
<path d="M4030 100 c0 -5 5 -10 10 -10 6 0 10 5 10 10 0 6 -4 10 -10 10 -5 0
-10 -4 -10 -10z"/>
<path d="M4190 96 c0 -9 5 -16 10 -16 6 0 10 4 10 9 0 6 -4 13 -10 16 -5 3
-10 -1 -10 -9z"/>
<path d="M4055 80 c-3 -5 -1 -10 4 -10 6 0 11 5 11 10 0 6 -2 10 -4 10 -3 0
-8 -4 -11 -10z"/>
<path d="M4126 62 c-2 -4 -1 -14 5 -22 7 -12 9 -10 9 8 0 23 -5 28 -14 14z"/>
<path d="M4183 59 c-18 -5 -33 -12 -33 -15 0 -9 53 5 65 17 10 10 11 10 -32
-2z"/>
<path d="M4350 10 c0 -5 5 -10 11 -10 5 0 7 5 4 10 -3 6 -8 10 -11 10 -2 0 -4
-4 -4 -10z"/>
</g>
</svg>
