<svg xmlns="http://www.w3.org/2000/svg" version="1.1" xmlns:xlink="http://www.w3.org/1999/xlink" xmlns:svgjs="http://svgjs.dev/svgjs" width="1000" height="623" viewBox="0 0 1000 623"><g transform="matrix(1,0,0,1,-0.6060606060606233,0.2522267206477409)"><svg viewBox="0 0 396 247" data-background-color="#dedede" preserveAspectRatio="xMidYMid meet" height="623" width="1000" xmlns="http://www.w3.org/2000/svg" xmlns:xlink="http://www.w3.org/1999/xlink"><g id="tight-bounds" transform="matrix(1,0,0,1,0.2400000000000091,-0.09999999999999432)"><svg viewBox="0 0 395.52 247.2" height="247.2" width="395.52"><g><svg></svg></g><g><svg viewBox="0 0 395.52 247.2" height="247.2" width="395.52"><g transform="matrix(1,0,0,1,75.54432,79.15452193123579)"><svg viewBox="0 0 244.43135999999998 88.89095613752839" height="88.89095613752839" width="244.43135999999998"><g><svg viewBox="0 0 244.43135999999998 88.89095613752839" height="88.89095613752839" width="244.43135999999998"><g><svg viewBox="0 0 244.43135999999998 88.89095613752839" height="88.89095613752839" width="244.43135999999998"><g><svg viewBox="0 0 244.43135999999998 88.89095613752839" height="88.89095613752839" width="244.43135999999998"><g id="textblocktransform"><svg viewBox="0 0 244.43135999999998 88.89095613752839" height="88.89095613752839" width="244.43135999999998" id="textblock"><g><svg viewBox="0 0 244.43135999999998 56.964935593220346" height="56.964935593220346" width="244.43135999999998"><g transform="matrix(1,0,0,1,0,0)"><svg width="244.43135999999998" viewBox="4 -35.04999923706055 153.38999938964844 35.75" height="56.964935593220346" data-palette-color="#374151"><path d="M14.15-35.05L14.15-35.05Q21.95-35.05 26.1-32.27 30.25-29.5 30.25-23.65L30.25-23.65Q30.25-20 28.58-17.73 26.9-15.45 23.75-14.15L23.75-14.15Q24.8-12.85 25.95-11.18 27.1-9.5 28.23-7.68 29.35-5.85 30.4-3.88 31.45-1.9 32.35 0L32.35 0 23.6 0Q22.65-1.7 21.68-3.45 20.7-5.2 19.68-6.85 18.65-8.5 17.65-9.98 16.65-11.45 15.65-12.65L15.65-12.65 11.8-12.65 11.8 0 4 0 4-34.15Q6.55-34.65 9.28-34.85 12-35.05 14.15-35.05ZM14.6-28.4L14.6-28.4Q13.75-28.4 13.08-28.35 12.4-28.3 11.8-28.25L11.8-28.25 11.8-18.85 14-18.85Q18.4-18.85 20.3-19.95 22.2-21.05 22.2-23.7L22.2-23.7Q22.2-26.25 20.28-27.33 18.35-28.4 14.6-28.4ZM34.35-12.95L34.35-12.95Q34.35-16.45 35.42-19.07 36.5-21.7 38.25-23.45 40-25.2 42.27-26.1 44.55-27 46.95-27L46.95-27Q52.55-27 55.8-23.58 59.05-20.15 59.05-13.5L59.05-13.5Q59.05-12.85 59-12.08 58.95-11.3 58.9-10.7L58.9-10.7 42-10.7Q42.25-8.4 44.15-7.05 46.05-5.7 49.25-5.7L49.25-5.7Q51.3-5.7 53.27-6.08 55.25-6.45 56.5-7L56.5-7 57.5-0.95Q56.9-0.65 55.9-0.35 54.9-0.05 53.67 0.18 52.45 0.4 51.05 0.55 49.65 0.7 48.25 0.7L48.25 0.7Q44.7 0.7 42.07-0.35 39.45-1.4 37.72-3.23 36-5.05 35.17-7.55 34.35-10.05 34.35-12.95ZM42-15.8L51.85-15.8Q51.8-16.75 51.52-17.65 51.25-18.55 50.67-19.25 50.1-19.95 49.22-20.4 48.35-20.85 47.05-20.85L47.05-20.85Q45.8-20.85 44.9-20.43 44-20 43.4-19.3 42.8-18.6 42.47-17.68 42.15-16.75 42-15.8L42-15.8ZM83.1 0L75.6 0Q73.55-4.35 71.55-9.05 69.55-13.75 67.75-18.35 65.95-22.95 64.42-27.15 62.9-31.35 61.8-34.65L61.8-34.65 70.4-34.65Q71.4-31.65 72.57-28.18 73.75-24.7 74.97-21.25 76.2-17.8 77.35-14.65 78.5-11.5 79.5-9.2L79.5-9.2Q80.45-11.5 81.62-14.65 82.8-17.8 84.02-21.25 85.25-24.7 86.42-28.18 87.6-31.65 88.6-34.65L88.6-34.65 96.9-34.65Q95.75-31.35 94.25-27.15 92.75-22.95 90.95-18.35 89.15-13.75 87.15-9.05 85.15-4.35 83.1 0L83.1 0ZM129.69 0L121.34 0Q120.79-1.8 120.12-3.7 119.44-5.6 118.79-7.5L118.79-7.5 105.29-7.5Q104.64-5.6 103.97-3.7 103.29-1.8 102.74 0L102.74 0 94.64 0Q96.59-5.6 98.34-10.35 100.09-15.1 101.77-19.3 103.44-23.5 105.07-27.28 106.69-31.05 108.44-34.65L108.44-34.65 115.89-34.65Q117.59-31.05 119.24-27.28 120.89-23.5 122.57-19.3 124.24-15.1 125.99-10.35 127.74-5.6 129.69 0L129.69 0ZM111.99-26.8L111.99-26.8Q111.74-26.05 111.24-24.75 110.74-23.45 110.09-21.75 109.44-20.05 108.67-18 107.89-15.95 107.09-13.7L107.09-13.7 116.94-13.7Q116.14-15.95 115.39-18 114.64-20.05 113.97-21.75 113.29-23.45 112.79-24.75 112.29-26.05 111.99-26.8ZM141.99 0L134.19 0 134.19-34.65 157.39-34.65 157.39-28.1 141.99-28.1 141.99-20.85 155.69-20.85 155.69-14.3 141.99-14.3 141.99 0Z" opacity="1" transform="matrix(1,0,0,1,0,0)" fill="#374151" class="wordmark-text-0" data-fill-palette-color="primary" id="text-0"></path></svg></g></svg></g><g transform="matrix(1,0,0,1,0,70.41298972832543)"><svg viewBox="0 0 244.43135999999998 18.477966409202956" height="18.477966409202956" width="244.43135999999998"><g transform="matrix(1,0,0,1,0,0)"><svg width="244.43135999999998" viewBox="3.5 -36 608.4500122070312 46" height="18.477966409202956" data-palette-color="#374151"><path d="M3.5-35L21.5-35Q25.25-35 28.23-34.18 31.2-33.35 33.25-31.78 35.3-30.2 36.4-27.93 37.5-25.65 37.5-22.75L37.5-22.75Q37.5-18.75 35.5-16 33.5-13.25 29.75-11.8L29.75-11.8 38 0 29.75 0 22.4-10.5 21.5-10.5 10.75-10.5 10.75 0 3.5 0 3.5-35ZM21.5-31.25L10.75-31.25 10.75-14.25 21.5-14.25Q25.45-14.25 27.6-16.32 29.75-18.4 29.75-22.75L29.75-22.75Q29.75-27.1 27.6-29.18 25.45-31.25 21.5-31.25L21.5-31.25ZM58.5-2.5L58.5-2.5Q60.95-2.5 63.07-3.35 65.2-4.2 67.25-5.75L67.25-5.75 69.25-2.75Q68.3-1.9 67.02-1.2 65.75-0.5 64.27-0.03 62.8 0.45 61.2 0.73 59.6 1 58 1L58 1Q54.45 1 51.52 0.08 48.6-0.85 46.55-2.63 44.5-4.4 43.37-7 42.25-9.6 42.25-13L42.25-13Q42.25-16.35 43.32-18.98 44.4-21.6 46.32-23.38 48.25-25.15 50.9-26.08 53.55-27 56.75-27L56.75-27Q59.75-27 62.4-26.1 65.05-25.2 67-23.48 68.95-21.75 70.1-19.3 71.25-16.85 71.25-13.75L71.25-13.75 71.25-10.25 49.9-10.25Q50.5-6.1 52.77-4.3 55.05-2.5 58.5-2.5ZM56.75-23.75L56.75-23.75Q55.3-23.75 54.05-23.2 52.8-22.65 51.87-21.45 50.95-20.25 50.37-18.35 49.8-16.45 49.75-13.75L49.75-13.75 63.75-13.75Q63.75-16.35 63.15-18.25 62.55-20.15 61.57-21.38 60.6-22.6 59.32-23.18 58.05-23.75 56.75-23.75ZM82.75-8.25L82.75-8.25Q82.75-3.5 88.5-3.5L88.5-3.5 95.5-3.5 95.5-13 88.5-13Q82.75-13 82.75-8.25ZM88.5-16.5L95.5-16.5Q95.5-20.1 93.62-21.8 91.75-23.5 88.75-23.5L88.75-23.5Q86.5-23.5 84.34-22.83 82.2-22.15 80.5-21L80.5-21 78.75-24Q79.84-24.75 81.17-25.3 82.5-25.85 83.9-26.23 85.3-26.6 86.67-26.8 88.05-27 89.25-27L89.25-27Q92.45-27 94.9-26.25 97.34-25.5 99.05-24.1 100.75-22.7 101.62-20.78 102.5-18.85 102.5-16.5L102.5-16.5 102.5 0 88.5 0Q81.7 0 78.47-2.05 75.25-4.1 75.25-8.25L75.25-8.25Q75.25-12.4 78.47-14.45 81.7-16.5 88.5-16.5L88.5-16.5ZM116.24-35L116.24 0 109.24 0 109.24-35 116.24-35ZM171.24-31.25L147.99-31.25 147.99-19.75 166.24-19.75 166.24-16 147.99-16 147.99-3.75 171.24-3.75 171.24 0 140.74 0 140.74-35 171.24-35 171.24-31.25ZM182.24-20.5L182.24-20.5Q182.24-19.35 183.26-18.4 184.29-17.45 186.74-16.75L186.74-16.75 194.49-14.5Q198.09-13.45 200.04-11.65 201.99-9.85 201.99-7L201.99-7Q201.99-5.2 201.24-3.73 200.49-2.25 198.79-1.2 197.09-0.15 194.39 0.43 191.69 1 187.74 1L187.74 1Q185.69 1 183.71 0.7 181.74 0.4 179.96-0.13 178.19-0.65 176.74-1.33 175.29-2 174.24-2.75L174.24-2.75 176.24-5.75Q178.34-4.45 181.16-3.48 183.99-2.5 187.74-2.5L187.74-2.5Q191.49-2.5 192.99-3.5 194.49-4.5 194.49-6L194.49-6Q194.49-7.15 193.44-8.08 192.39-9 189.74-9.75L189.74-9.75 181.99-12Q178.79-12.95 176.76-14.73 174.74-16.5 174.74-19.5L174.74-19.5Q174.74-21.1 175.46-22.48 176.19-23.85 177.74-24.85 179.29-25.85 181.69-26.43 184.09-27 187.49-27L187.49-27Q191.64-27 195.01-25.88 198.39-24.75 200.49-23.25L200.49-23.25 198.49-20.25Q196.44-21.55 193.84-22.53 191.24-23.5 187.49-23.5L187.49-23.5Q184.84-23.5 183.54-22.65 182.24-21.8 182.24-20.5ZM208.23-9.5L208.23-22.5 203.48-22.5 203.48-26 208.23-26 208.23-34 215.23-34 215.23-26 222.98-26 222.98-22.5 215.23-22.5 215.23-9.5Q215.23-7.6 215.66-6.28 216.08-4.95 216.81-4.13 217.53-3.3 218.48-2.9 219.43-2.5 220.48-2.5L220.48-2.5Q221.98-2.5 223.38-2.98 224.78-3.45 225.73-4L225.73-4 227.23-0.75Q225.73 0 223.81 0.5 221.88 1 219.98 1L219.98 1Q214.33 1 211.28-1.8 208.23-4.6 208.23-9.5L208.23-9.5ZM235.98-8.25L235.98-8.25Q235.98-3.5 241.73-3.5L241.73-3.5 248.73-3.5 248.73-13 241.73-13Q235.98-13 235.98-8.25ZM241.73-16.5L248.73-16.5Q248.73-20.1 246.86-21.8 244.98-23.5 241.98-23.5L241.98-23.5Q239.73-23.5 237.58-22.83 235.43-22.15 233.73-21L233.73-21 231.98-24Q233.08-24.75 234.41-25.3 235.73-25.85 237.13-26.23 238.53-26.6 239.91-26.8 241.28-27 242.48-27L242.48-27Q245.68-27 248.13-26.25 250.58-25.5 252.28-24.1 253.98-22.7 254.86-20.78 255.73-18.85 255.73-16.5L255.73-16.5 255.73 0 241.73 0Q234.93 0 231.71-2.05 228.48-4.1 228.48-8.25L228.48-8.25Q228.48-12.4 231.71-14.45 234.93-16.5 241.73-16.5L241.73-16.5ZM263.73-9.5L263.73-22.5 258.98-22.5 258.98-26 263.73-26 263.73-34 270.73-34 270.73-26 278.48-26 278.48-22.5 270.73-22.5 270.73-9.5Q270.73-7.6 271.15-6.28 271.58-4.95 272.3-4.13 273.03-3.3 273.98-2.9 274.93-2.5 275.98-2.5L275.98-2.5Q277.48-2.5 278.88-2.98 280.28-3.45 281.23-4L281.23-4 282.73-0.75Q281.23 0 279.3 0.5 277.38 1 275.48 1L275.48 1Q269.83 1 266.78-1.8 263.73-4.6 263.73-9.5L263.73-9.5ZM300.23-2.5L300.23-2.5Q302.68-2.5 304.8-3.35 306.93-4.2 308.98-5.75L308.98-5.75 310.98-2.75Q310.03-1.9 308.75-1.2 307.48-0.5 306-0.03 304.53 0.45 302.93 0.73 301.33 1 299.73 1L299.73 1Q296.18 1 293.25 0.08 290.33-0.85 288.28-2.63 286.23-4.4 285.1-7 283.98-9.6 283.98-13L283.98-13Q283.98-16.35 285.05-18.98 286.13-21.6 288.05-23.38 289.98-25.15 292.63-26.08 295.28-27 298.48-27L298.48-27Q301.48-27 304.13-26.1 306.78-25.2 308.73-23.48 310.68-21.75 311.83-19.3 312.98-16.85 312.98-13.75L312.98-13.75 312.98-10.25 291.63-10.25Q292.23-6.1 294.5-4.3 296.78-2.5 300.23-2.5ZM298.48-23.75L298.48-23.75Q297.03-23.75 295.78-23.2 294.53-22.65 293.6-21.45 292.68-20.25 292.1-18.35 291.53-16.45 291.48-13.75L291.48-13.75 305.48-13.75Q305.48-16.35 304.88-18.25 304.28-20.15 303.3-21.38 302.33-22.6 301.05-23.18 299.78-23.75 298.48-23.75ZM346.97-35L359.97-5 360.47-5 373.47-35 384.22-35 384.22 0 376.97 0 376.97-28 376.47-28 364.47 0 355.97 0 343.97-28 343.47-28 343.47 0 336.22 0 336.22-35 346.97-35ZM396.97-8.25L396.97-8.25Q396.97-3.5 402.72-3.5L402.72-3.5 409.72-3.5 409.72-13 402.72-13Q396.97-13 396.97-8.25ZM402.72-16.5L409.72-16.5Q409.72-20.1 407.84-21.8 405.97-23.5 402.97-23.5L402.97-23.5Q400.72-23.5 398.57-22.83 396.42-22.15 394.72-21L394.72-21 392.97-24Q394.07-24.75 395.39-25.3 396.72-25.85 398.12-26.23 399.52-26.6 400.89-26.8 402.27-27 403.47-27L403.47-27Q406.67-27 409.12-26.25 411.57-25.5 413.27-24.1 414.97-22.7 415.84-20.78 416.72-18.85 416.72-16.5L416.72-16.5 416.72 0 402.72 0Q395.92 0 392.69-2.05 389.47-4.1 389.47-8.25L389.47-8.25Q389.47-12.4 392.69-14.45 395.92-16.5 402.72-16.5L402.72-16.5ZM443.22-26L443.22-22.5 437.22-22.5Q433.82-22.5 432.02-20.68 430.22-18.85 430.22-15.25L430.22-15.25 430.22 0 423.22 0 423.22-15.25Q423.22-20.35 426.44-23.18 429.67-26 435.72-26L435.72-26 443.22-26ZM467.21 0L459.46-11.5 454.21-11.5 454.21 0 447.21 0 447.21-35 454.21-35 454.21-15 459.46-15 467.21-26 474.71-26 465.96-13.5 475.21 0 467.21 0ZM493.21-2.5L493.21-2.5Q495.66-2.5 497.79-3.35 499.91-4.2 501.96-5.75L501.96-5.75 503.96-2.75Q503.01-1.9 501.74-1.2 500.46-0.5 498.99-0.03 497.51 0.45 495.91 0.73 494.31 1 492.71 1L492.71 1Q489.16 1 486.24 0.08 483.31-0.85 481.26-2.63 479.21-4.4 478.09-7 476.96-9.6 476.96-13L476.96-13Q476.96-16.35 478.04-18.98 479.11-21.6 481.04-23.38 482.96-25.15 485.61-26.08 488.26-27 491.46-27L491.46-27Q494.46-27 497.11-26.1 499.76-25.2 501.71-23.48 503.66-21.75 504.81-19.3 505.96-16.85 505.96-13.75L505.96-13.75 505.96-10.25 484.61-10.25Q485.21-6.1 487.49-4.3 489.76-2.5 493.21-2.5ZM491.46-23.75L491.46-23.75Q490.01-23.75 488.76-23.2 487.51-22.65 486.59-21.45 485.66-20.25 485.09-18.35 484.51-16.45 484.46-13.75L484.46-13.75 498.46-13.75Q498.46-16.35 497.86-18.25 497.26-20.15 496.29-21.38 495.31-22.6 494.04-23.18 492.76-23.75 491.46-23.75ZM512.96-9.5L512.96-22.5 508.21-22.5 508.21-26 512.96-26 512.96-34 519.96-34 519.96-26 527.71-26 527.71-22.5 519.96-22.5 519.96-9.5Q519.96-7.6 520.38-6.28 520.81-4.95 521.53-4.13 522.26-3.3 523.21-2.9 524.16-2.5 525.21-2.5L525.21-2.5Q526.71-2.5 528.11-2.98 529.51-3.45 530.46-4L530.46-4 531.96-0.75Q530.46 0 528.53 0.5 526.61 1 524.71 1L524.71 1Q519.06 1 516.01-1.8 512.96-4.6 512.96-9.5L512.96-9.5ZM543.2-25.5L543.2 0 536.2 0 536.2-25.5 543.2-25.5ZM543.45-32.25L543.45-32.25Q543.45-30.75 542.43-29.63 541.4-28.5 539.7-28.5L539.7-28.5Q538-28.5 536.98-29.63 535.95-30.75 535.95-32.25L535.95-32.25Q535.95-33.75 536.98-34.88 538-36 539.7-36L539.7-36Q541.35-36 542.4-34.88 543.45-33.75 543.45-32.25ZM577.95-15.75L577.95 0 570.95 0 570.95-15.75Q570.95-19.35 569.15-20.93 567.35-22.5 563.95-22.5L563.95-22.5 557.45-22.5 557.45 0 550.45 0 550.45-26 563.95-26Q571.1-26 574.53-23.43 577.95-20.85 577.95-15.75L577.95-15.75ZM604.95-22.5L598.7-22.5Q595.1-22.5 593.02-20.28 590.95-18.05 590.95-13.5L590.95-13.5Q590.95-8.95 593.02-6.73 595.1-4.5 598.7-4.5L598.7-4.5 604.95-4.5 604.95-22.5ZM611.95-26L611.95-0.5Q611.95 1.85 611.05 3.78 610.15 5.7 608.37 7.1 606.6 8.5 603.92 9.25 601.25 10 597.7 10L597.7 10Q596.5 10 595.12 9.83 593.75 9.65 592.35 9.28 590.95 8.9 589.62 8.33 588.3 7.75 587.2 7L587.2 7 588.95 4Q590.65 5.15 592.8 5.83 594.95 6.5 597.2 6.5L597.2 6.5Q600.95 6.5 602.95 4.8 604.95 3.1 604.95-0.5L604.95-0.5 604.95-1 598.7-1Q595.25-1 592.42-1.9 589.6-2.8 587.6-4.45 585.6-6.1 584.52-8.4 583.45-10.7 583.45-13.5L583.45-13.5Q583.45-16.3 584.52-18.6 585.6-20.9 587.6-22.55 589.6-24.2 592.42-25.1 595.25-26 598.7-26L598.7-26 611.95-26Z" opacity="1" transform="matrix(1,0,0,1,0,0)" fill="#374151" class="slogan-text-1" data-fill-palette-color="secondary" id="text-1"></path></svg></g></svg></g></svg></g></svg></g></svg></g></svg></g></svg></g><g><path d="M0 123.6c0-68.262 55.338-123.6 123.6-123.6 50.012 0 93.086 29.703 112.544 72.43l-2.829 0c-19.28-41.268-61.158-69.862-109.715-69.861-66.844 0-121.031 54.188-121.031 121.031 0 66.844 54.188 121.031 121.031 121.031 48.557 0 90.435-28.594 109.715-69.862l2.829 0c-19.458 42.727-62.532 72.43-112.544 72.431-68.262 0-123.6-55.338-123.6-123.6z" fill="#374151" stroke="transparent" data-fill-palette-color="tertiary"></path></g></svg></g><defs></defs></svg><rect width="395.52" height="247.2" fill="none" stroke="none" visibility="hidden"></rect></g></svg></g></svg>