<?xml version="1.0" standalone="no"?>
<!DOCTYPE svg PUBLIC "-//W3C//DTD SVG 20010904//EN"
 "http://www.w3.org/TR/2001/REC-SVG-20010904/DTD/svg10.dtd">
<svg version="1.0" xmlns="http://www.w3.org/2000/svg"
 width="743.000000pt" height="325.000000pt" viewBox="0 0 743.000000 325.000000"
 preserveAspectRatio="xMidYMid meet">

<g transform="translate(0.000000,325.000000) scale(0.100000,-0.100000)"
fill="#000000" stroke="none">
<path d="M0 1625 l0 -1625 3715 0 3715 0 0 1625 0 1625 -3715 0 -3715 0 0
-1625z m4751 1337 c23 -26 29 -42 29 -79 l0 -46 -21 19 c-19 17 -38 19 -164
19 -126 0 -145 -2 -164 -19 l-21 -19 0 47 c0 41 5 53 35 83 l35 35 121 -4 121
-3 29 -33z m1636 17 c22 -7 58 -45 118 -124 l88 -113 101 -4 c88 -3 110 -8
167 -35 116 -54 191 -140 225 -258 16 -57 16 -85 -1 -547 l-19 -488 -23 0
c-19 0 -23 5 -23 33 0 17 -13 239 -29 493 -32 508 -35 526 -104 592 -63 60
-109 75 -236 80 -89 3 -120 8 -135 21 -10 9 -54 62 -98 119 l-79 102 -419 0
-419 0 -79 -102 c-44 -57 -88 -111 -99 -120 -17 -16 -66 -17 -563 -20 -491 -3
-548 -5 -576 -20 -30 -17 -64 -70 -64 -101 0 -31 -13 -47 -36 -47 -22 0 -24 4
-24 54 0 105 41 174 129 218 46 23 50 23 552 28 l507 5 91 117 c58 74 99 118
113 121 52 10 906 7 935 -4z m-625 -399 c9 -11 18 -24 20 -29 2 -5 45 -5 97
-1 150 13 266 -11 403 -82 91 -47 199 -143 265 -235 256 -359 119 -880 -284
-1078 -99 -49 -171 -66 -293 -72 -88 -5 -119 -2 -185 16 -118 32 -293 120
-339 171 -21 23 -35 44 -32 47 2 3 25 -9 50 -26 85 -59 209 -111 312 -132 87
-18 110 -19 185 -10 169 22 287 79 405 196 65 65 90 98 123 166 187 387 -18
845 -425 949 -135 35 -304 23 -424 -28 -52 -22 -244 -161 -278 -200 -12 -15
-54 -73 -92 -129 l-70 -102 70 -7 c66 -6 100 -22 100 -45 0 -5 -16 -27 -36
-49 l-36 -40 -94 0 -94 0 -56 -87 c-31 -49 -100 -155 -152 -238 -52 -82 -100
-156 -107 -164 -16 -16 -92 -8 -120 13 -17 12 -17 16 7 67 14 30 78 132 142
228 l117 174 -108 -7 c-59 -3 -129 -9 -155 -12 -62 -8 -70 9 -34 71 43 72 56
77 241 89 l164 11 72 105 c39 58 96 136 125 174 30 38 52 71 50 73 -2 2 -43
-1 -92 -7 -118 -13 -350 -13 -416 1 -29 6 -69 20 -89 31 -102 56 -66 168 57
184 67 8 97 -9 46 -27 -39 -13 -41 -36 -4 -51 38 -17 451 -16 564 0 75 11 95
18 152 57 99 66 208 81 248 35z m-2014 -21 c28 -52 0 -125 -115 -299 -98 -147
-178 -246 -317 -389 -307 -314 -592 -501 -768 -501 -70 0 -116 40 -132 116
-25 118 131 399 425 763 l43 54 -64 -48 c-139 -103 -223 -113 -250 -30 -14 41
-8 64 27 105 29 35 58 41 48 10 -17 -53 88 2 299 159 76 56 115 64 181 37 61
-26 52 -48 -111 -276 -261 -364 -409 -600 -427 -681 -4 -15 -1 -33 7 -44 12
-17 16 -17 77 12 182 86 440 316 706 630 153 179 243 353 183 353 -58 0 13 48
89 59 57 9 82 1 99 -30z m840 -22 c12 -11 22 -29 22 -39 0 -22 -81 -213 -243
-568 -262 -578 -262 -578 -384 -595 -44 -6 -53 -4 -53 8 0 8 40 102 90 207 49
106 87 196 84 201 -3 5 -78 9 -167 9 l-162 -1 -76 -107 c-43 -59 -103 -149
-135 -199 -33 -51 -66 -95 -75 -98 -24 -8 -65 13 -80 41 -9 19 -10 32 -1 63
13 41 87 160 160 255 l45 58 -89 -3 -89 -4 -3 27 c-7 61 68 98 199 98 l76 0
113 125 c176 194 375 373 514 464 86 56 122 69 138 53 9 -9 16 -3 30 19 16 26
21 28 41 18 12 -6 32 -21 45 -32z m-2275 17 c53 -9 97 -53 97 -96 0 -44 -20
-62 -95 -88 -63 -22 -135 -26 -165 -10 -16 8 -18 15 -10 36 10 24 9 25 -28 19
-170 -29 -349 -125 -389 -211 -22 -45 -8 -60 66 -74 73 -14 128 -12 176 6 22
8 72 17 110 21 60 5 73 3 94 -14 l25 -20 -18 -47 c-10 -25 -26 -50 -35 -56
-10 -5 -58 -17 -107 -26 -96 -19 -155 -44 -249 -107 -128 -87 -245 -233 -245
-308 0 -67 78 -102 176 -78 120 28 341 161 424 255 17 20 41 57 52 83 11 25
24 53 28 61 11 24 45 23 75 -2 22 -19 27 -32 27 -71 0 -61 -35 -122 -116 -203
-202 -201 -474 -304 -652 -248 -155 48 -204 202 -114 359 34 60 150 174 228
224 28 19 52 37 52 40 -1 3 -24 17 -53 31 -68 32 -97 76 -97 143 0 31 8 68 21
94 53 109 261 233 469 279 61 13 194 17 253 8z m-1048 -30 c125 -44 205 -132
205 -226 0 -78 -85 -197 -193 -270 -82 -56 -226 -121 -325 -149 -79 -21 -94
-31 -72 -44 5 -3 47 -52 92 -108 189 -236 273 -314 326 -300 22 5 23 4 14 -14
-6 -11 -29 -36 -52 -56 -97 -88 -181 -29 -435 306 -65 87 -121 157 -124 157
-8 0 -135 -199 -204 -320 -54 -93 -56 -95 -101 -104 -32 -7 -54 -6 -72 3 -24
10 -26 16 -21 50 2 21 13 55 23 77 42 87 510 769 575 837 l47 48 -42 -6 c-71
-12 -228 -66 -297 -101 -36 -19 -81 -51 -100 -71 l-34 -35 38 6 c40 7 47 -2
20 -26 -37 -33 -84 -49 -131 -46 -40 3 -48 7 -65 36 -68 116 129 266 452 347
133 33 139 34 291 30 98 -2 149 -8 185 -21z m5561 -59 c40 -31 69 -101 61
-151 -12 -73 -84 -134 -157 -134 -37 0 -90 21 -109 44 -13 15 -11 15 15 1 110
-57 230 74 165 180 -10 17 -37 39 -60 49 -35 16 -47 17 -78 8 -53 -16 -54 -6
-2 18 55 26 119 20 165 -15z m-794 -82 c32 -11 54 -25 56 -35 5 -24 -29 -30
-75 -14 -147 52 -306 16 -410 -92 -48 -50 -73 -59 -73 -28 0 22 80 105 128
134 106 62 252 75 374 35z m-4503 -1640 c15 -13 18 -22 12 -32 -8 -12 -14 -13
-36 -3 -57 26 -115 6 -115 -39 0 -21 48 -55 91 -64 73 -16 96 -110 40 -166
-25 -25 -37 -29 -85 -29 -43 0 -61 5 -80 23 -19 16 -23 26 -16 37 8 13 13 13
39 -3 59 -34 131 -13 131 40 0 25 -43 58 -91 68 -72 16 -96 105 -43 159 22 21
36 26 79 26 36 0 60 -6 74 -17z m571 -3 c0 -18 -7 -20 -60 -20 l-60 0 0 -155
c0 -148 -1 -155 -20 -155 -19 0 -20 7 -20 155 l0 155 -60 0 c-53 0 -60 2 -60
20 0 19 7 20 140 20 133 0 140 -1 140 -20z m330 -82 c0 -131 11 -173 52 -194
42 -22 93 -11 116 24 13 20 18 53 21 149 3 113 5 123 22 123 18 0 19 -9 19
-131 0 -143 -9 -172 -59 -202 -58 -34 -125 -26 -172 22 l-39 39 0 136 c0 129
1 136 20 136 19 0 20 -7 20 -102z m787 76 c38 -27 73 -99 73 -149 0 -59 -37
-125 -85 -152 -33 -19 -56 -23 -127 -23 l-88 0 0 176 0 176 99 -4 c81 -2 105
-7 128 -24z m433 -149 c0 -168 -1 -175 -20 -175 -19 0 -20 7 -20 175 0 168 1
175 20 175 19 0 20 -7 20 -175z m576 159 c111 -53 113 -251 4 -313 -53 -29
-135 -29 -181 2 -42 28 -79 98 -79 152 0 54 37 124 79 152 42 28 126 31 177 7z"/>
<path d="M4325 2323 c-99 -82 -425 -405 -425 -421 0 -9 31 -12 109 -12 60 0
122 -3 137 -6 l29 -6 119 249 c66 136 121 251 123 256 11 20 -19 0 -92 -60z"/>
<path d="M989 2402 c52 -26 59 -45 36 -89 -11 -20 -66 -102 -123 -182 -74
-105 -99 -147 -87 -149 44 -10 234 72 345 148 110 76 178 168 159 217 -17 46
-113 73 -259 73 l-105 0 34 -18z"/>
<path d="M3040 585 l0 -135 50 0 c98 0 150 47 150 134 0 89 -51 136 -149 136
l-51 0 0 -135z"/>
<path d="M4079 705 c-33 -18 -59 -71 -59 -120 0 -102 94 -165 180 -120 46 24
60 52 60 120 0 39 -6 69 -16 83 -34 48 -112 66 -165 37z"/>
</g>
</svg>
