<svg xmlns="http://www.w3.org/2000/svg" version="1.1" xmlns:xlink="http://www.w3.org/1999/xlink" xmlns:svgjs="http://svgjs.dev/svgjs" width="1500" height="1518" viewBox="0 0 1500 1518"><g transform="matrix(1,0,0,1,1.3259016393440106,0.6145748987853494)"><svg viewBox="0 0 244 247" data-background-color="#ffffff" preserveAspectRatio="xMidYMid meet" height="1518" width="1500" xmlns="http://www.w3.org/2000/svg" xmlns:xlink="http://www.w3.org/1999/xlink"><g id="tight-bounds" transform="matrix(1,0,0,1,-0.21567999999996346,-0.09999999999999432)"><svg viewBox="0 0 244.43135999999996 247.2" height="247.2" width="244.43135999999996"><g><svg></svg></g><g><svg viewBox="0 0 244.43135999999996 247.2" height="247.2" width="244.43135999999996"><g transform="matrix(1,0,0,1,0,92.89366015080591)"><svg viewBox="0 0 244.43135999999996 61.41267969838815" height="61.41267969838815" width="244.43135999999996"><g><svg viewBox="0 0 244.43135999999996 61.41267969838815" height="61.41267969838815" width="244.43135999999996"><g><svg viewBox="0 0 244.43135999999996 61.41267969838815" height="61.41267969838815" width="244.43135999999996"><g><svg viewBox="0 0 244.43135999999996 61.41267969838815" height="61.41267969838815" width="244.43135999999996"><g id="textblocktransform"><svg viewBox="0 0 244.43135999999996 61.41267969838815" height="61.41267969838815" width="244.43135999999996" id="textblock"><g><svg viewBox="0 0 244.43135999999996 33.1230649112486" height="33.1230649112486" width="244.43135999999996"><g transform="matrix(1,0,0,1,0,0)"><svg width="244.43135999999996" viewBox="1.22 -31.88 240.67 32.61" height="33.1230649112486" data-palette-color="#202046"><path d="M15.7 0L16.04-2.03 10.25-2.98 10.25-28.47Q10.5-28.49 11.32-28.55 12.13-28.61 12.74-28.61L12.74-28.61Q16.67-28.61 18.57-26.45 20.46-24.29 20.46-20.9L20.46-20.9Q20.46-17.63 18.53-15.95 16.6-14.28 12.67-14.18L12.67-14.18 11.38-14.16 11.82-12.13 12.52-12.11Q13.6-12.06 14.26-12.06L14.26-12.06Q17.24-12.06 19.82-13.29 22.41-14.53 23.96-16.75 25.51-18.97 25.51-21.78L25.51-21.78Q25.51-26.71 22.14-28.67 18.77-30.64 13.26-30.64L13.26-30.64Q10.5-30.64 7.71-30.35 4.93-30.05 1.64-29.57L1.64-29.57 1.39-27.69 5.57-26.95 5.57-2.95 1.49-1.81 1.22 0 15.7 0ZM39.08 0L39.33-2.12 33.64-2.95 33.64-12.3Q33.88-14.04 34.6-15.23 35.32-16.43 36.2-17.03 37.08-17.63 37.81-17.63L37.81-17.63Q38.52-17.63 39.3-17.37 40.09-17.11 40.79-16.67L40.79-16.67Q42.19-17.85 42.19-19.38L42.19-19.38Q42.19-20.48 41.43-21.3 40.67-22.12 39.48-22.12L39.48-22.12Q38.38-22.12 37.25-21.37 36.13-20.63 35.13-19.14 34.13-17.65 33.49-15.53L33.49-15.53 33.03-15.53 33.52-21.14 32.96-21.73 25.95-20.83 25.61-18.97 29.59-17.77 29.59-2.78 25.85-1.81 25.61 0 39.08 0ZM49.29-26.12Q50.07-26.12 50.76-26.53 51.46-26.93 51.86-27.61 52.27-28.3 52.27-29.1L52.27-29.1Q52.27-30.27 51.39-31.08 50.51-31.88 49.29-31.88L49.29-31.88Q48.12-31.88 47.25-31.09 46.38-30.3 46.38-29.15L46.38-29.15Q46.38-28.34 46.77-27.65 47.16-26.95 47.83-26.54 48.51-26.12 49.29-26.12L49.29-26.12ZM43.48 0L55.2 0 55.46-1.95 51.56-2.83 51.56-21 50.95-21.61 44.09-21.04 43.77-19.19 47.46-17.85 47.46-2.83 43.77-1.93 43.48 0ZM68.03 0L68.3-1.93 64.81-2.78 64.81-16.43Q65.72-17.46 66.98-18.01 68.25-18.55 69.62-18.55L69.62-18.55Q70.79-18.55 71.75-18.02 72.7-17.48 73.25-16.5 73.8-15.53 73.8-14.28L73.8-14.28 73.8-2.78 70.6-1.81 70.33 0 81.14 0 81.39-1.93 77.78-2.78 77.78-16.11Q78.85-17.26 79.91-17.91 80.97-18.55 82.44-18.55L82.44-18.55Q84.34-18.55 85.44-17.33 86.54-16.11 86.54-14.28L86.54-14.28 86.54-2.76 83.49-1.78 83.32 0 93.69 0 94.01-1.93 90.64-2.81 90.64-14.87Q90.64-21.68 84.88-21.68L84.88-21.68Q82.71-21.68 80.84-20.59 78.97-19.51 77.68-17.85L77.68-17.85 77.39-17.85Q76.85-19.92 75.35-20.9 73.85-21.88 71.99-21.88L71.99-21.88Q69.84-21.88 67.9-20.78 65.96-19.68 64.67-18.07L64.67-18.07 64.45-18.07 64.89-21.14 64.45-21.66 57.02-20.63 56.78-18.8 60.69-17.55 60.69-2.78 57.02-1.81 56.78 0 68.03 0ZM104.87 0.73Q107.27 0.73 109.35-0.13 111.44-1 112.91-2.54L112.91-2.54 112.39-3.83Q111.2-3.2 110.29-2.91 109.39-2.61 108.71-2.55 108.02-2.49 106.85-2.49L106.85-2.49Q104.7-2.49 103.2-3.72 101.7-4.96 100.92-6.88 100.14-8.81 100.04-10.86L100.04-10.86 111.86-11.01Q112-11.65 112.12-12.63 112.25-13.62 112.25-14.18L112.25-14.18Q112.25-16.67 111.38-18.42 110.51-20.17 109.02-21.06 107.53-21.95 105.73-21.95L105.73-21.95Q103.29-21.95 100.97-20.56 98.65-19.17 97.17-16.55 95.69-13.94 95.69-10.45L95.69-10.45Q95.69-6.91 96.99-4.37 98.28-1.83 100.39-0.55 102.5 0.73 104.87 0.73L104.87 0.73ZM104.53-19.56Q107.9-19.56 107.9-15.01L107.9-15.01Q107.9-14.65 107.86-14.12 107.83-13.6 107.75-13.33L107.75-13.33 100.09-12.77Q100.21-15.01 100.88-16.54 101.55-18.07 102.53-18.81 103.51-19.56 104.53-19.56L104.53-19.56ZM122.64-28.52L127.08-27.49 127.08-2.95 123.01-1.81 122.81 0 137.24 0 137.56-2.03 131.82-2.98 131.82-14.11 138.51-14.11 139.24-9.72 141.39-10.06 142.05-19.63 139.85-19.29 138.83-16.36 131.82-16.36 131.82-28.13 143.17-28.13 144-22.85 146.15-22.51 147.15-30.37 122.91-30.37 122.64-28.52ZM160.97 0L161.21-2.12 155.52-2.95 155.52-12.3Q155.77-14.04 156.49-15.23 157.21-16.43 158.09-17.03 158.97-17.63 159.7-17.63L159.7-17.63Q160.41-17.63 161.19-17.37 161.97-17.11 162.68-16.67L162.68-16.67Q164.07-17.85 164.07-19.38L164.07-19.38Q164.07-20.48 163.31-21.3 162.56-22.12 161.36-22.12L161.36-22.12Q160.26-22.12 159.14-21.37 158.01-20.63 157.01-19.14 156.01-17.65 155.38-15.53L155.38-15.53 154.91-15.53 155.4-21.14 154.84-21.73 147.83-20.83 147.49-18.97 151.47-17.77 151.47-2.78 147.74-1.81 147.49 0 160.97 0ZM170.39 0.59Q173.03 0.59 174.7-0.62 176.37-1.83 177.08-3.2L177.08-3.2 177.35-3.2 177.35-2.83Q177.35-2.03 177.73-1.28 178.11-0.54 178.96-0.05 179.81 0.44 181.13 0.44L181.13 0.44Q182.16 0.44 183.33 0.17L183.33 0.17Q184.09 0.02 184.45-0.02L184.45-0.02 184.77-2.12 183.55-2.34Q182.4-2.54 181.83-2.87 181.25-3.2 181.03-3.82 180.81-4.44 180.81-5.62L180.81-5.62 180.81-14.48Q180.81-18.38 179.41-20.18 178.01-21.97 174.78-21.97L174.78-21.97Q173.08-21.97 171.1-21.26 169.12-20.56 167.78-19.4 166.44-18.24 166.44-16.97L166.44-16.97Q166.44-15.38 167.41-14.92 168.39-14.45 169.83-14.45L169.83-14.45Q170.05-16.92 170.21-17.85 170.37-18.77 170.88-19.24 171.39-19.7 172.54-19.7L172.54-19.7Q174.86-19.7 175.86-17.86 176.86-16.02 176.86-13.18L176.86-13.18 176.86-11.84Q173.05-11.57 170.52-10.44 168-9.3 166.8-7.64 165.61-5.98 165.61-4.1L165.61-4.1Q165.61-2.66 166.25-1.6 166.9-0.54 168 0.02 169.1 0.59 170.39 0.59L170.39 0.59ZM176.86-10.45L176.86-4.59Q176.13-3.78 174.96-3.1 173.78-2.42 172.61-2.42L172.61-2.42Q171.76-2.42 171.13-2.86 170.51-3.3 170.19-3.96 169.88-4.61 169.88-5.25L169.88-5.25Q169.88-7.13 171.46-8.41 173.05-9.69 176.86-10.45L176.86-10.45ZM197.02 0L197.29-1.93 193.8-2.78 193.8-16.43Q194.7-17.46 195.97-18.01 197.24-18.55 198.61-18.55L198.61-18.55Q199.78-18.55 200.73-18.02 201.69-17.48 202.24-16.5 202.79-15.53 202.79-14.28L202.79-14.28 202.79-2.78 199.59-1.81 199.32 0 210.13 0 210.38-1.93 206.76-2.78 206.76-16.11Q207.84-17.26 208.9-17.91 209.96-18.55 211.43-18.55L211.43-18.55Q213.33-18.55 214.43-17.33 215.53-16.11 215.53-14.28L215.53-14.28 215.53-2.76 212.48-1.78 212.31 0 222.68 0 223-1.93 219.63-2.81 219.63-14.87Q219.63-21.68 213.87-21.68L213.87-21.68Q211.7-21.68 209.83-20.59 207.96-19.51 206.67-17.85L206.67-17.85 206.37-17.85Q205.84-19.92 204.34-20.9 202.83-21.88 200.98-21.88L200.98-21.88Q198.83-21.88 196.89-20.78 194.95-19.68 193.65-18.07L193.65-18.07 193.43-18.07 193.87-21.14 193.43-21.66 186.01-20.63 185.77-18.8 189.67-17.55 189.67-2.78 186.01-1.81 185.77 0 197.02 0ZM233.86 0.73Q236.25 0.73 238.34-0.13 240.43-1 241.89-2.54L241.89-2.54 241.38-3.83Q240.18-3.2 239.28-2.91 238.38-2.61 237.69-2.55 237.01-2.49 235.84-2.49L235.84-2.49Q233.69-2.49 232.19-3.72 230.69-4.96 229.91-6.88 229.13-8.81 229.03-10.86L229.03-10.86 240.84-11.01Q240.99-11.65 241.11-12.63 241.23-13.62 241.23-14.18L241.23-14.18Q241.23-16.67 240.37-18.42 239.5-20.17 238.01-21.06 236.52-21.95 234.72-21.95L234.72-21.95Q232.27-21.95 229.96-20.56 227.64-19.17 226.16-16.55 224.68-13.94 224.68-10.45L224.68-10.45Q224.68-6.91 225.98-4.37 227.27-1.83 229.38-0.55 231.49 0.73 233.86 0.73L233.86 0.73ZM233.52-19.56Q236.89-19.56 236.89-15.01L236.89-15.01Q236.89-14.65 236.85-14.12 236.82-13.6 236.74-13.33L236.74-13.33 229.08-12.77Q229.2-15.01 229.87-16.54 230.54-18.07 231.52-18.81 232.49-19.56 233.52-19.56L233.52-19.56Z" opacity="1" transform="matrix(1,0,0,1,0,0)" fill="#202046" class="wordmark-text-0" data-fill-palette-color="primary" id="text-0"></path></svg></g></svg></g><g transform="matrix(1,0,0,1,0,40.94262558323652)"><svg viewBox="0 0 244.43135999999996 20.470054115151633" height="20.470054115151633" width="244.43135999999996"><g transform="matrix(1,0,0,1,0,0)"><svg width="244.43135999999996" viewBox="2.75 -34.9 416.74 34.9" height="20.470054115151633" data-palette-color="#3886ce"><path d="M2.75 0L2.75-2.3 6.5-2.3 6.5-32.6 2.75-32.6 2.75-34.9 11.55-34.9 21.75-13.3 21.9-13.3 32.6-34.9 40.85-34.9 40.85-32.6 37.1-32.6 37.1-2.3 40.85-2.3 40.85 0 29.05 0 29.05-2.3 32.8-2.3 32.8-29.85 32.6-29.85 30.4-25 20.8-5.85 12.25-23.75 9.45-29.85 9.25-29.85 9.25-2.3 13-2.3 13 0 2.75 0ZM110.78 0L110.78-2.3 114.53-2.3 114.53-32.6 110.78-32.6 110.78-34.9 136.58-34.9 136.58-26.5 132.98-26.5 132.98-32.45 118.83-32.45 118.83-19.2 128.73-19.2 128.73-23.2 131.73-23.2 131.73-12.75 128.73-12.75 128.73-16.75 118.83-16.75 118.83-2.45 133.48-2.45 133.48-8.85 137.08-8.85 137.08 0 110.78 0ZM207.27 0L207.27-2.3 211.02-2.3 211.02-32.6 207.27-32.6 207.27-34.9 221.87-34.9Q225.32-34.9 228.17-33.83 231.02-32.75 233.04-30.58 235.07-28.4 236.19-25.13 237.32-21.85 237.32-17.45L237.32-17.45Q237.32-13.05 236.19-9.78 235.07-6.5 233.04-4.33 231.02-2.15 228.17-1.07 225.32 0 221.87 0L221.87 0 207.27 0ZM215.32-32.45L215.32-2.45 221.42-2.45Q223.97-2.45 226.04-3.33 228.12-4.2 229.54-5.78 230.97-7.35 231.74-9.55 232.52-11.75 232.52-14.45L232.52-14.45 232.52-20.45Q232.52-23.15 231.74-25.35 230.97-27.55 229.54-29.13 228.12-30.7 226.04-31.58 223.97-32.45 221.42-32.45L221.42-32.45 215.32-32.45ZM307 0L307-2.3 310.75-2.3 310.75-32.6 307-32.6 307-34.9 318.8-34.9 318.8-32.6 315.05-32.6 315.05-2.3 318.8-2.3 318.8 0 307 0ZM386.79 0L386.79-2.3 389.44-2.3 400.79-34.9 405.54-34.9 416.84-2.3 419.49-2.3 419.49 0 407.69 0 407.69-2.3 412.19-2.3 409.09-11.35 395.49-11.35 392.39-2.3 396.89-2.3 396.89 0 386.79 0ZM402.19-31.25L396.19-13.75 408.34-13.75 402.49-31.25 402.19-31.25Z" opacity="1" transform="matrix(1,0,0,1,0,0)" fill="#3886ce" class="slogan-text-1" data-fill-palette-color="secondary" id="text-1"></path></svg></g></svg></g></svg></g></svg></g><g></g></svg></g></svg></g></svg></g><path d="M0 86.894L0 1 244.431 1 244.431 86.894 241.444 86.894 241.444 3.987 2.987 3.987 2.987 86.894 0 86.894M0 160.306L0 246.2 244.431 246.2 244.431 160.306 241.444 160.306 241.444 243.213 2.987 243.213 2.987 160.306 0 160.306" fill="#202046" stroke="transparent" data-fill-palette-color="primary"></path></svg></g><defs></defs></svg><rect width="244.43135999999996" height="247.2" fill="none" stroke="none" visibility="hidden"></rect></g></svg></g></svg>