<svg xmlns="http://www.w3.org/2000/svg" version="1.1" xmlns:xlink="http://www.w3.org/1999/xlink" xmlns:svgjs="http://svgjs.dev/svgjs" width="1500" height="1518" viewBox="0 0 1500 1518"><g transform="matrix(1,0,0,1,1.3259016393440106,0.6145748987853494)"><svg viewBox="0 0 244 247" data-background-color="#ffffff" preserveAspectRatio="xMidYMid meet" height="1518" width="1500" xmlns="http://www.w3.org/2000/svg" xmlns:xlink="http://www.w3.org/1999/xlink"><g id="tight-bounds" transform="matrix(1,0,0,1,-0.21567999999996346,-0.09999999999999432)"><svg viewBox="0 0 244.43135999999996 247.2" height="247.2" width="244.43135999999996"><g><svg></svg></g><g><svg viewBox="0 0 244.43135999999996 247.2" height="247.2" width="244.43135999999996"><g transform="matrix(1,0,0,1,0,92.89366015080591)"><svg viewBox="0 0 244.43135999999996 61.41267969838815" height="61.41267969838815" width="244.43135999999996"><g><svg viewBox="0 0 244.43135999999996 61.41267969838815" height="61.41267969838815" width="244.43135999999996"><g><svg viewBox="0 0 244.43135999999996 61.41267969838815" height="61.41267969838815" width="244.43135999999996"><g><svg viewBox="0 0 244.43135999999996 61.41267969838815" height="61.41267969838815" width="244.43135999999996"><g id="textblocktransform"><svg viewBox="0 0 244.43135999999996 61.41267969838815" height="61.41267969838815" width="244.43135999999996" id="textblock"><g><svg viewBox="0 0 244.43135999999996 33.1230649112486" height="33.1230649112486" width="244.43135999999996"><g transform="matrix(1,0,0,1,0,0)"><svg width="244.43135999999996" viewBox="1.22 -31.88 240.67 32.61" height="33.1230649112486" data-palette-color="#202046"><path d="M15.7 0L16.04-2.03 10.25-2.98 10.25-28.47Q10.5-28.49 11.32-28.55 12.13-28.61 12.74-28.61L12.74-28.61Q16.67-28.61 18.57-26.45 20.46-24.29 20.46-20.9L20.46-20.9Q20.46-17.63 18.53-15.95 16.6-14.28 12.67-14.18L12.67-14.18 11.38-14.16 11.82-12.13 12.52-12.11Q13.6-12.06 14.26-12.06L14.26-12.06Q17.24-12.06 19.82-13.29 22.41-14.53 23.96-16.75 25.51-18.97 25.51-21.78L25.51-21.78Q25.51-26.71 22.14-28.67 18.77-30.64 13.26-30.64L13.26-30.64Q10.5-30.64 7.71-30.35 4.93-30.05 1.64-29.57L1.64-29.57 1.39-27.69 5.57-26.95 5.57-2.95 1.49-1.81 1.22 0 15.7 0ZM39.08 0L39.33-2.12 33.64-2.95 33.64-12.3Q33.88-14.04 34.6-15.23 35.32-16.43 36.2-17.03 37.08-17.63 37.81-17.63L37.81-17.63Q38.52-17.63 39.3-17.37 40.09-17.11 40.79-16.67L40.79-16.67Q42.19-17.85 42.19-19.38L42.19-19.38Q42.19-20.48 41.43-21.3 40.67-22.12 39.48-22.12L39.48-22.12Q38.38-22.12 37.25-21.37 36.13-20.63 35.13-19.14 34.13-17.65 33.49-15.53L33.49-15.53 33.03-15.53 33.52-21.14 32.96-21.73 25.95-20.83 25.61-18.97 29.59-17.77 29.59-2.78 25.85-1.81 25.61 0 39.08 0ZM49.29-26.12Q50.07-26.12 50.76-26.53 51.46-26.93 51.86-27.61 52.27-28.3 52.27-29.1L52.27-29.1Q52.27-30.27 51.39-31.08 50.51-31.88 49.29-31.88L49.29-31.88Q48.12-31.88 47.25-31.09 46.38-30.3 46.38-29.15L46.38-29.15Q46.38-28.34 46.77-27.65 47.16-26.95 47.83-26.54 48.51-26.12 49.29-26.12L49.29-26.12ZM43.48 0L55.2 0 55.46-1.95 51.56-2.83 51.56-21 50.95-21.61 44.09-21.04 43.77-19.19 47.46-17.85 47.46-2.83 43.77-1.93 43.48 0ZM68.03 0L68.3-1.93 64.81-2.78 64.81-16.43Q65.72-17.46 66.98-18.01 68.25-18.55 69.62-18.55L69.62-18.55Q70.79-18.55 71.75-18.02 72.7-17.48 73.25-16.5 73.8-15.53 73.8-14.28L73.8-14.28 73.8-2.78 70.6-1.81 70.33 0 81.14 0 81.39-1.93 77.78-2.78 77.78-16.11Q78.85-17.26 79.91-17.91 80.97-18.55 82.44-18.55L82.44-18.55Q84.34-18.55 85.44-17.33 86.54-16.11 86.54-14.28L86.54-14.28 86.54-2.76 83.49-1.78 83.32 0 93.69 0 94.01-1.93 90.64-2.81 90.64-14.87Q90.64-21.68 84.88-21.68L84.88-21.68Q82.71-21.68 80.84-20.59 78.97-19.51 77.68-17.85L77.68-17.85 77.39-17.85Q76.85-19.92 75.35-20.9 73.85-21.88 71.99-21.88L71.99-21.88Q69.84-21.88 67.9-20.78 65.96-19.68 64.67-18.07L64.67-18.07 64.45-18.07 64.89-21.14 64.45-21.66 57.02-20.63 56.78-18.8 60.69-17.55 60.69-2.78 57.02-1.81 56.78 0 68.03 0ZM104.87 0.73Q107.27 0.73 109.35-0.13 111.44-1 112.91-2.54L112.91-2.54 112.39-3.83Q111.2-3.2 110.29-2.91 109.39-2.61 108.71-2.55 108.02-2.49 106.85-2.49L106.85-2.49Q104.7-2.49 103.2-3.72 101.7-4.96 100.92-6.88 100.14-8.81 100.04-10.86L100.04-10.86 111.86-11.01Q112-11.65 112.12-12.63 112.25-13.62 112.25-14.18L112.25-14.18Q112.25-16.67 111.38-18.42 110.51-20.17 109.02-21.06 107.53-21.95 105.73-21.95L105.73-21.95Q103.29-21.95 100.97-20.56 98.65-19.17 97.17-16.55 95.69-13.94 95.69-10.45L95.69-10.45Q95.69-6.91 96.99-4.37 98.28-1.83 100.39-0.55 102.5 0.73 104.87 0.73L104.87 0.73ZM104.53-19.56Q107.9-19.56 107.9-15.01L107.9-15.01Q107.9-14.65 107.86-14.12 107.83-13.6 107.75-13.33L107.75-13.33 100.09-12.77Q100.21-15.01 100.88-16.54 101.55-18.07 102.53-18.81 103.51-19.56 104.53-19.56L104.53-19.56ZM122.64-28.52L127.08-27.49 127.08-2.95 123.01-1.81 122.81 0 137.24 0 137.56-2.03 131.82-2.98 131.82-14.11 138.51-14.11 139.24-9.72 141.39-10.06 142.05-19.63 139.85-19.29 138.83-16.36 131.82-16.36 131.82-28.13 143.17-28.13 144-22.85 146.15-22.51 147.15-30.37 122.91-30.37 122.64-28.52ZM160.97 0L161.21-2.12 155.52-2.95 155.52-12.3Q155.77-14.04 156.49-15.23 157.21-16.43 158.09-17.03 158.97-17.63 159.7-17.63L159.7-17.63Q160.41-17.63 161.19-17.37 161.97-17.11 162.68-16.67L162.68-16.67Q164.07-17.85 164.07-19.38L164.07-19.38Q164.07-20.48 163.31-21.3 162.56-22.12 161.36-22.12L161.36-22.12Q160.26-22.12 159.14-21.37 158.01-20.63 157.01-19.14 156.01-17.65 155.38-15.53L155.38-15.53 154.91-15.53 155.4-21.14 154.84-21.73 147.83-20.83 147.49-18.97 151.47-17.77 151.47-2.78 147.74-1.81 147.49 0 160.97 0ZM170.39 0.59Q173.03 0.59 174.7-0.62 176.37-1.83 177.08-3.2L177.08-3.2 177.35-3.2 177.35-2.83Q177.35-2.03 177.73-1.28 178.11-0.54 178.96-0.05 179.81 0.44 181.13 0.44L181.13 0.44Q182.16 0.44 183.33 0.17L183.33 0.17Q184.09 0.02 184.45-0.02L184.45-0.02 184.77-2.12 183.55-2.34Q182.4-2.54 181.83-2.87 181.25-3.2 181.03-3.82 180.81-4.44 180.81-5.62L180.81-5.62 180.81-14.48Q180.81-18.38 179.41-20.18 178.01-21.97 174.78-21.97L174.78-21.97Q173.08-21.97 171.1-21.26 169.12-20.56 167.78-19.4 166.44-18.24 166.44-16.97L166.44-16.97Q166.44-15.38 167.41-14.92 168.39-14.45 169.83-14.45L169.83-14.45Q170.05-16.92 170.21-17.85 170.37-18.77 170.88-19.24 171.39-19.7 172.54-19.7L172.54-19.7Q174.86-19.7 175.86-17.86 176.86-16.02 176.86-13.18L176.86-13.18 176.86-11.84Q173.05-11.57 170.52-10.44 168-9.3 166.8-7.64 165.61-5.98 165.61-4.1L165.61-4.1Q165.61-2.66 166.25-1.6 166.9-0.54 168 0.02 169.1 0.59 170.39 0.59L170.39 0.59ZM176.86-10.45L176.86-4.59Q176.13-3.78 174.96-3.1 173.78-2.42 172.61-2.42L172.61-2.42Q171.76-2.42 171.13-2.86 170.51-3.3 170.19-3.96 169.88-4.61 169.88-5.25L169.88-5.25Q169.88-7.13 171.46-8.41 173.05-9.69 176.86-10.45L176.86-10.45ZM197.02 0L197.29-1.93 193.8-2.78 193.8-16.43Q194.7-17.46 195.97-18.01 197.24-18.55 198.61-18.55L198.61-18.55Q199.78-18.55 200.73-18.02 201.69-17.48 202.24-16.5 202.79-15.53 202.79-14.28L202.79-14.28 202.79-2.78 199.59-1.81 199.32 0 210.13 0 210.38-1.93 206.76-2.78 206.76-16.11Q207.84-17.26 208.9-17.91 209.96-18.55 211.43-18.55L211.43-18.55Q213.33-18.55 214.43-17.33 215.53-16.11 215.53-14.28L215.53-14.28 215.53-2.76 212.48-1.78 212.31 0 222.68 0 223-1.93 219.63-2.81 219.63-14.87Q219.63-21.68 213.87-21.68L213.87-21.68Q211.7-21.68 209.83-20.59 207.96-19.51 206.67-17.85L206.67-17.85 206.37-17.85Q205.84-19.92 204.34-20.9 202.83-21.88 200.98-21.88L200.98-21.88Q198.83-21.88 196.89-20.78 194.95-19.68 193.65-18.07L193.65-18.07 193.43-18.07 193.87-21.14 193.43-21.66 186.01-20.63 185.77-18.8 189.67-17.55 189.67-2.78 186.01-1.81 185.77 0 197.02 0ZM233.86 0.73Q236.25 0.73 238.34-0.13 240.43-1 241.89-2.54L241.89-2.54 241.38-3.83Q240.18-3.2 239.28-2.91 238.38-2.61 237.69-2.55 237.01-2.49 235.84-2.49L235.84-2.49Q233.69-2.49 232.19-3.72 230.69-4.96 229.91-6.88 229.13-8.81 229.03-10.86L229.03-10.86 240.84-11.01Q240.99-11.65 241.11-12.63 241.23-13.62 241.23-14.18L241.23-14.18Q241.23-16.67 240.37-18.42 239.5-20.17 238.01-21.06 236.52-21.95 234.72-21.95L234.72-21.95Q232.27-21.95 229.96-20.56 227.64-19.17 226.16-16.55 224.68-13.94 224.68-10.45L224.68-10.45Q224.68-6.91 225.98-4.37 227.27-1.83 229.38-0.55 231.49 0.73 233.86 0.73L233.86 0.73ZM233.52-19.56Q236.89-19.56 236.89-15.01L236.89-15.01Q236.89-14.65 236.85-14.12 236.82-13.6 236.74-13.33L236.74-13.33 229.08-12.77Q229.2-15.01 229.87-16.54 230.54-18.07 231.52-18.81 232.49-19.56 233.52-19.56L233.52-19.56Z" opacity="1" transform="matrix(1,0,0,1,0,0)" fill="#202046" class="wordmark-text-0" data-fill-palette-color="primary" id="text-0"></path></svg></g></svg></g><g transform="matrix(1,0,0,1,0,40.94262558323652)"><svg viewBox="0 0 244.43135999999996 20.470054115151633" height="20.470054115151633" width="244.43135999999996"><g transform="matrix(1,0,0,1,0,0)"><svg width="244.43135999999996" viewBox="2.75 -38 460.92 38.6" height="20.470054115151633" data-palette-color="#3886ce"><path d="M2.75 0L2.75-2.3 6.5-2.3 6.5-32.6 2.75-32.6 2.75-34.9 11.55-34.9 21.75-13.3 21.9-13.3 32.6-34.9 40.85-34.9 40.85-32.6 37.1-32.6 37.1-2.3 40.85-2.3 40.85 0 29.05 0 29.05-2.3 32.8-2.3 32.8-29.85 32.6-29.85 30.4-25 20.8-5.85 12.25-23.75 9.45-29.85 9.25-29.85 9.25-2.3 13-2.3 13 0 2.75 0ZM137.82 0.6L137.82 0.6Q135.07 0.6 132.89-0.38 130.72-1.35 129.22-3.1 127.72-4.85 126.92-7.35 126.12-9.85 126.12-12.9L126.12-12.9Q126.12-15.9 126.99-18.38 127.87-20.85 129.39-22.65 130.92-24.45 133.02-25.43 135.12-26.4 137.62-26.4L137.62-26.4Q140.17-26.4 142.17-25.5 144.17-24.6 145.54-22.98 146.92-21.35 147.67-19.1 148.42-16.85 148.42-14.2L148.42-14.2 148.42-13.05 130.67-13.05 130.67-11.75Q130.67-7.5 132.79-5.05 134.92-2.6 138.47-2.6L138.47-2.6Q141.57-2.6 143.39-3.88 145.22-5.15 146.27-7.2L146.27-7.2 147.92-6.15Q147.42-4.85 146.54-3.63 145.67-2.4 144.42-1.48 143.17-0.55 141.52 0.03 139.87 0.6 137.82 0.6ZM130.67-15.95L130.67-15.35 144.12-15.35 144.12-15.85Q144.12-17.6 143.74-19.1 143.37-20.6 142.57-21.7 141.77-22.8 140.54-23.43 139.32-24.05 137.62-24.05L137.62-24.05Q135.92-24.05 134.62-23.45 133.32-22.85 132.44-21.75 131.57-20.65 131.12-19.18 130.67-17.7 130.67-15.95L130.67-15.95ZM244.48 0.6L244.48 0.6Q239.68 0.6 236.81-2.88 233.93-6.35 233.93-12.9L233.93-12.9Q233.93-19.45 236.81-22.93 239.68-26.4 244.48-26.4L244.48-26.4Q247.48-26.4 249.36-25.1 251.23-23.8 252.08-21.95L252.08-21.95 252.28-21.95 252.28-34.15 248.53-34.8 248.53-36.55 256.38-38 256.38-3.25 260.08-2.6 260.08-0.9 252.28 0.6 252.28-3.9 252.08-3.9Q251.23-2.05 249.38-0.73 247.53 0.6 244.48 0.6ZM245.68-2.25L245.68-2.25Q246.88-2.25 248.08-2.6 249.28-2.95 250.21-3.6 251.13-4.25 251.71-5.23 252.28-6.2 252.28-7.4L252.28-7.4 252.28-18.4Q252.28-19.6 251.71-20.58 251.13-21.55 250.21-22.2 249.28-22.85 248.08-23.2 246.88-23.55 245.68-23.55L245.68-23.55Q242.23-23.55 240.31-21.23 238.38-18.9 238.38-15L238.38-15 238.38-10.8Q238.38-6.9 240.31-4.58 242.23-2.25 245.68-2.25ZM350.35-31.75L350.35-31.75Q349.05-31.75 348.38-32.52 347.7-33.3 347.7-34.4L347.7-34.4 347.7-34.65Q347.7-35.75 348.38-36.52 349.05-37.3 350.35-37.3L350.35-37.3Q351.65-37.3 352.35-36.52 353.05-35.75 353.05-34.65L353.05-34.65 353.05-34.4Q353.05-33.3 352.35-32.52 351.65-31.75 350.35-31.75ZM344.6 0L344.6-2.3 348.3-2.3 348.3-22.55 344.6-23.2 344.6-24.9 352.4-26.4 352.4-2.3 356.1-2.3 356.1 0 344.6 0ZM448.27 0.6L448.27 0.6Q444.67 0.6 442.64-1.28 440.62-3.15 440.62-6.4L440.62-6.4Q440.62-8.25 441.22-9.68 441.82-11.1 443.19-12.05 444.57-13 446.77-13.5 448.97-14 452.12-14L452.12-14 455.82-14 455.82-17.8Q455.82-20.85 454.34-22.48 452.87-24.1 449.92-24.1L449.92-24.1Q448.62-24.1 447.52-23.88 446.42-23.65 445.72-23.25L445.72-23.25 445.72-23.15Q446.27-22.85 446.79-22.25 447.32-21.65 447.32-20.55L447.32-20.55Q447.32-19.25 446.57-18.53 445.82-17.8 444.57-17.8L444.57-17.8Q443.37-17.8 442.59-18.53 441.82-19.25 441.82-20.7L441.82-20.7Q441.82-21.8 442.47-22.83 443.12-23.85 444.32-24.65 445.52-25.45 447.29-25.93 449.07-26.4 451.32-26.4L451.32-26.4Q455.37-26.4 457.64-24.3 459.92-22.2 459.92-18.4L459.92-18.4 459.92-2.15 463.67-2.15 463.67-0.4Q463.12 0 462.19 0.3 461.27 0.6 460.12 0.6L460.12 0.6Q458.17 0.6 457.12-0.5 456.07-1.6 456.07-3.45L456.07-3.45 456.07-3.8 455.82-3.8Q455.47-2.95 454.89-2.15 454.32-1.35 453.42-0.75 452.52-0.15 451.24 0.23 449.97 0.6 448.27 0.6ZM450.02-2.15L450.02-2.15Q452.42-2.15 454.12-3.38 455.82-4.6 455.82-7.15L455.82-7.15 455.82-12 452.57-12Q450.42-12 448.97-11.68 447.52-11.35 446.67-10.73 445.82-10.1 445.44-9.2 445.07-8.3 445.07-7.1L445.07-7.1 445.07-6.05Q445.07-4.15 446.37-3.15 447.67-2.15 450.02-2.15Z" opacity="1" transform="matrix(1,0,0,1,0,0)" fill="#3886ce" class="slogan-text-1" data-fill-palette-color="secondary" id="text-1"></path></svg></g></svg></g></svg></g></svg></g><g></g></svg></g></svg></g></svg></g><path d="M0 86.894L0 1 244.431 1 244.431 86.894 241.444 86.894 241.444 3.987 2.987 3.987 2.987 86.894 0 86.894M0 160.306L0 246.2 244.431 246.2 244.431 160.306 241.444 160.306 241.444 243.213 2.987 243.213 2.987 160.306 0 160.306" fill="#202046" stroke="transparent" data-fill-palette-color="primary"></path></svg></g><defs></defs></svg><rect width="244.43135999999996" height="247.2" fill="none" stroke="none" visibility="hidden"></rect></g></svg></g></svg>